<svg xmlns="http://www.w3.org/2000/svg" viewBox="0 0 1680 1248" width="3360" height="2496" font-family="Public Pixel, Consolas, monospace">
<title>Duck Pond layout</title>
<rect width="1680" height="1248" fill="#14202E"/>
<rect width="1680" height="1080" fill="#76C4CC"/>
<line x1="0" y1="0" x2="0" y2="1080" stroke="#000" stroke-opacity="0.07" stroke-width="1"/>
<line x1="20" y1="0" x2="20" y2="1080" stroke="#000" stroke-opacity="0.07" stroke-width="1"/>
<line x1="40" y1="0" x2="40" y2="1080" stroke="#000" stroke-opacity="0.07" stroke-width="1"/>
<line x1="60" y1="0" x2="60" y2="1080" stroke="#000" stroke-opacity="0.07" stroke-width="1"/>
<line x1="80" y1="0" x2="80" y2="1080" stroke="#000" stroke-opacity="0.07" stroke-width="1"/>
<line x1="100" y1="0" x2="100" y2="1080" stroke="#000" stroke-opacity="0.07" stroke-width="1"/>
<line x1="120" y1="0" x2="120" y2="1080" stroke="#000" stroke-opacity="0.07" stroke-width="1"/>
<line x1="140" y1="0" x2="140" y2="1080" stroke="#000" stroke-opacity="0.07" stroke-width="1"/>
<line x1="160" y1="0" x2="160" y2="1080" stroke="#000" stroke-opacity="0.07" stroke-width="1"/>
<line x1="180" y1="0" x2="180" y2="1080" stroke="#000" stroke-opacity="0.07" stroke-width="1"/>
<line x1="200" y1="0" x2="200" y2="1080" stroke="#000" stroke-opacity="0.07" stroke-width="1"/>
<line x1="220" y1="0" x2="220" y2="1080" stroke="#000" stroke-opacity="0.07" stroke-width="1"/>
<line x1="240" y1="0" x2="240" y2="1080" stroke="#000" stroke-opacity="0.07" stroke-width="1"/>
<line x1="260" y1="0" x2="260" y2="1080" stroke="#000" stroke-opacity="0.07" stroke-width="1"/>
<line x1="280" y1="0" x2="280" y2="1080" stroke="#000" stroke-opacity="0.07" stroke-width="1"/>
<line x1="300" y1="0" x2="300" y2="1080" stroke="#000" stroke-opacity="0.07" stroke-width="1"/>
<line x1="320" y1="0" x2="320" y2="1080" stroke="#000" stroke-opacity="0.07" stroke-width="1"/>
<line x1="340" y1="0" x2="340" y2="1080" stroke="#000" stroke-opacity="0.07" stroke-width="1"/>
<line x1="360" y1="0" x2="360" y2="1080" stroke="#000" stroke-opacity="0.07" stroke-width="1"/>
<line x1="380" y1="0" x2="380" y2="1080" stroke="#000" stroke-opacity="0.07" stroke-width="1"/>
<line x1="400" y1="0" x2="400" y2="1080" stroke="#000" stroke-opacity="0.07" stroke-width="1"/>
<line x1="420" y1="0" x2="420" y2="1080" stroke="#000" stroke-opacity="0.07" stroke-width="1"/>
<line x1="440" y1="0" x2="440" y2="1080" stroke="#000" stroke-opacity="0.07" stroke-width="1"/>
<line x1="460" y1="0" x2="460" y2="1080" stroke="#000" stroke-opacity="0.07" stroke-width="1"/>
<line x1="480" y1="0" x2="480" y2="1080" stroke="#000" stroke-opacity="0.07" stroke-width="1"/>
<line x1="500" y1="0" x2="500" y2="1080" stroke="#000" stroke-opacity="0.07" stroke-width="1"/>
<line x1="520" y1="0" x2="520" y2="1080" stroke="#000" stroke-opacity="0.07" stroke-width="1"/>
<line x1="540" y1="0" x2="540" y2="1080" stroke="#000" stroke-opacity="0.07" stroke-width="1"/>
<line x1="560" y1="0" x2="560" y2="1080" stroke="#000" stroke-opacity="0.07" stroke-width="1"/>
<line x1="580" y1="0" x2="580" y2="1080" stroke="#000" stroke-opacity="0.07" stroke-width="1"/>
<line x1="600" y1="0" x2="600" y2="1080" stroke="#000" stroke-opacity="0.07" stroke-width="1"/>
<line x1="620" y1="0" x2="620" y2="1080" stroke="#000" stroke-opacity="0.07" stroke-width="1"/>
<line x1="640" y1="0" x2="640" y2="1080" stroke="#000" stroke-opacity="0.07" stroke-width="1"/>
<line x1="660" y1="0" x2="660" y2="1080" stroke="#000" stroke-opacity="0.07" stroke-width="1"/>
<line x1="680" y1="0" x2="680" y2="1080" stroke="#000" stroke-opacity="0.07" stroke-width="1"/>
<line x1="700" y1="0" x2="700" y2="1080" stroke="#000" stroke-opacity="0.07" stroke-width="1"/>
<line x1="720" y1="0" x2="720" y2="1080" stroke="#000" stroke-opacity="0.07" stroke-width="1"/>
<line x1="740" y1="0" x2="740" y2="1080" stroke="#000" stroke-opacity="0.07" stroke-width="1"/>
<line x1="760" y1="0" x2="760" y2="1080" stroke="#000" stroke-opacity="0.07" stroke-width="1"/>
<line x1="780" y1="0" x2="780" y2="1080" stroke="#000" stroke-opacity="0.07" stroke-width="1"/>
<line x1="800" y1="0" x2="800" y2="1080" stroke="#000" stroke-opacity="0.07" stroke-width="1"/>
<line x1="820" y1="0" x2="820" y2="1080" stroke="#000" stroke-opacity="0.07" stroke-width="1"/>
<line x1="840" y1="0" x2="840" y2="1080" stroke="#000" stroke-opacity="0.07" stroke-width="1"/>
<line x1="860" y1="0" x2="860" y2="1080" stroke="#000" stroke-opacity="0.07" stroke-width="1"/>
<line x1="880" y1="0" x2="880" y2="1080" stroke="#000" stroke-opacity="0.07" stroke-width="1"/>
<line x1="900" y1="0" x2="900" y2="1080" stroke="#000" stroke-opacity="0.07" stroke-width="1"/>
<line x1="920" y1="0" x2="920" y2="1080" stroke="#000" stroke-opacity="0.07" stroke-width="1"/>
<line x1="940" y1="0" x2="940" y2="1080" stroke="#000" stroke-opacity="0.07" stroke-width="1"/>
<line x1="960" y1="0" x2="960" y2="1080" stroke="#000" stroke-opacity="0.07" stroke-width="1"/>
<line x1="980" y1="0" x2="980" y2="1080" stroke="#000" stroke-opacity="0.07" stroke-width="1"/>
<line x1="1000" y1="0" x2="1000" y2="1080" stroke="#000" stroke-opacity="0.07" stroke-width="1"/>
<line x1="1020" y1="0" x2="1020" y2="1080" stroke="#000" stroke-opacity="0.07" stroke-width="1"/>
<line x1="1040" y1="0" x2="1040" y2="1080" stroke="#000" stroke-opacity="0.07" stroke-width="1"/>
<line x1="1060" y1="0" x2="1060" y2="1080" stroke="#000" stroke-opacity="0.07" stroke-width="1"/>
<line x1="1080" y1="0" x2="1080" y2="1080" stroke="#000" stroke-opacity="0.07" stroke-width="1"/>
<line x1="1100" y1="0" x2="1100" y2="1080" stroke="#000" stroke-opacity="0.07" stroke-width="1"/>
<line x1="1120" y1="0" x2="1120" y2="1080" stroke="#000" stroke-opacity="0.07" stroke-width="1"/>
<line x1="1140" y1="0" x2="1140" y2="1080" stroke="#000" stroke-opacity="0.07" stroke-width="1"/>
<line x1="1160" y1="0" x2="1160" y2="1080" stroke="#000" stroke-opacity="0.07" stroke-width="1"/>
<line x1="1180" y1="0" x2="1180" y2="1080" stroke="#000" stroke-opacity="0.07" stroke-width="1"/>
<line x1="1200" y1="0" x2="1200" y2="1080" stroke="#000" stroke-opacity="0.07" stroke-width="1"/>
<line x1="1220" y1="0" x2="1220" y2="1080" stroke="#000" stroke-opacity="0.07" stroke-width="1"/>
<line x1="1240" y1="0" x2="1240" y2="1080" stroke="#000" stroke-opacity="0.07" stroke-width="1"/>
<line x1="1260" y1="0" x2="1260" y2="1080" stroke="#000" stroke-opacity="0.07" stroke-width="1"/>
<line x1="1280" y1="0" x2="1280" y2="1080" stroke="#000" stroke-opacity="0.07" stroke-width="1"/>
<line x1="1300" y1="0" x2="1300" y2="1080" stroke="#000" stroke-opacity="0.07" stroke-width="1"/>
<line x1="1320" y1="0" x2="1320" y2="1080" stroke="#000" stroke-opacity="0.07" stroke-width="1"/>
<line x1="1340" y1="0" x2="1340" y2="1080" stroke="#000" stroke-opacity="0.07" stroke-width="1"/>
<line x1="1360" y1="0" x2="1360" y2="1080" stroke="#000" stroke-opacity="0.07" stroke-width="1"/>
<line x1="1380" y1="0" x2="1380" y2="1080" stroke="#000" stroke-opacity="0.07" stroke-width="1"/>
<line x1="1400" y1="0" x2="1400" y2="1080" stroke="#000" stroke-opacity="0.07" stroke-width="1"/>
<line x1="1420" y1="0" x2="1420" y2="1080" stroke="#000" stroke-opacity="0.07" stroke-width="1"/>
<line x1="1440" y1="0" x2="1440" y2="1080" stroke="#000" stroke-opacity="0.07" stroke-width="1"/>
<line x1="1460" y1="0" x2="1460" y2="1080" stroke="#000" stroke-opacity="0.07" stroke-width="1"/>
<line x1="1480" y1="0" x2="1480" y2="1080" stroke="#000" stroke-opacity="0.07" stroke-width="1"/>
<line x1="1500" y1="0" x2="1500" y2="1080" stroke="#000" stroke-opacity="0.07" stroke-width="1"/>
<line x1="1520" y1="0" x2="1520" y2="1080" stroke="#000" stroke-opacity="0.07" stroke-width="1"/>
<line x1="1540" y1="0" x2="1540" y2="1080" stroke="#000" stroke-opacity="0.07" stroke-width="1"/>
<line x1="1560" y1="0" x2="1560" y2="1080" stroke="#000" stroke-opacity="0.07" stroke-width="1"/>
<line x1="1580" y1="0" x2="1580" y2="1080" stroke="#000" stroke-opacity="0.07" stroke-width="1"/>
<line x1="1600" y1="0" x2="1600" y2="1080" stroke="#000" stroke-opacity="0.07" stroke-width="1"/>
<line x1="1620" y1="0" x2="1620" y2="1080" stroke="#000" stroke-opacity="0.07" stroke-width="1"/>
<line x1="1640" y1="0" x2="1640" y2="1080" stroke="#000" stroke-opacity="0.07" stroke-width="1"/>
<line x1="1660" y1="0" x2="1660" y2="1080" stroke="#000" stroke-opacity="0.07" stroke-width="1"/>
<line x1="1680" y1="0" x2="1680" y2="1080" stroke="#000" stroke-opacity="0.07" stroke-width="1"/>
<line x1="0" y1="0" x2="1680" y2="0" stroke="#000" stroke-opacity="0.07" stroke-width="1"/>
<line x1="0" y1="20" x2="1680" y2="20" stroke="#000" stroke-opacity="0.07" stroke-width="1"/>
<line x1="0" y1="40" x2="1680" y2="40" stroke="#000" stroke-opacity="0.07" stroke-width="1"/>
<line x1="0" y1="60" x2="1680" y2="60" stroke="#000" stroke-opacity="0.07" stroke-width="1"/>
<line x1="0" y1="80" x2="1680" y2="80" stroke="#000" stroke-opacity="0.07" stroke-width="1"/>
<line x1="0" y1="100" x2="1680" y2="100" stroke="#000" stroke-opacity="0.07" stroke-width="1"/>
<line x1="0" y1="120" x2="1680" y2="120" stroke="#000" stroke-opacity="0.07" stroke-width="1"/>
<line x1="0" y1="140" x2="1680" y2="140" stroke="#000" stroke-opacity="0.07" stroke-width="1"/>
<line x1="0" y1="160" x2="1680" y2="160" stroke="#000" stroke-opacity="0.07" stroke-width="1"/>
<line x1="0" y1="180" x2="1680" y2="180" stroke="#000" stroke-opacity="0.07" stroke-width="1"/>
<line x1="0" y1="200" x2="1680" y2="200" stroke="#000" stroke-opacity="0.07" stroke-width="1"/>
<line x1="0" y1="220" x2="1680" y2="220" stroke="#000" stroke-opacity="0.07" stroke-width="1"/>
<line x1="0" y1="240" x2="1680" y2="240" stroke="#000" stroke-opacity="0.07" stroke-width="1"/>
<line x1="0" y1="260" x2="1680" y2="260" stroke="#000" stroke-opacity="0.07" stroke-width="1"/>
<line x1="0" y1="280" x2="1680" y2="280" stroke="#000" stroke-opacity="0.07" stroke-width="1"/>
<line x1="0" y1="300" x2="1680" y2="300" stroke="#000" stroke-opacity="0.07" stroke-width="1"/>
<line x1="0" y1="320" x2="1680" y2="320" stroke="#000" stroke-opacity="0.07" stroke-width="1"/>
<line x1="0" y1="340" x2="1680" y2="340" stroke="#000" stroke-opacity="0.07" stroke-width="1"/>
<line x1="0" y1="360" x2="1680" y2="360" stroke="#000" stroke-opacity="0.07" stroke-width="1"/>
<line x1="0" y1="380" x2="1680" y2="380" stroke="#000" stroke-opacity="0.07" stroke-width="1"/>
<line x1="0" y1="400" x2="1680" y2="400" stroke="#000" stroke-opacity="0.07" stroke-width="1"/>
<line x1="0" y1="420" x2="1680" y2="420" stroke="#000" stroke-opacity="0.07" stroke-width="1"/>
<line x1="0" y1="440" x2="1680" y2="440" stroke="#000" stroke-opacity="0.07" stroke-width="1"/>
<line x1="0" y1="460" x2="1680" y2="460" stroke="#000" stroke-opacity="0.07" stroke-width="1"/>
<line x1="0" y1="480" x2="1680" y2="480" stroke="#000" stroke-opacity="0.07" stroke-width="1"/>
<line x1="0" y1="500" x2="1680" y2="500" stroke="#000" stroke-opacity="0.07" stroke-width="1"/>
<line x1="0" y1="520" x2="1680" y2="520" stroke="#000" stroke-opacity="0.07" stroke-width="1"/>
<line x1="0" y1="540" x2="1680" y2="540" stroke="#000" stroke-opacity="0.07" stroke-width="1"/>
<line x1="0" y1="560" x2="1680" y2="560" stroke="#000" stroke-opacity="0.07" stroke-width="1"/>
<line x1="0" y1="580" x2="1680" y2="580" stroke="#000" stroke-opacity="0.07" stroke-width="1"/>
<line x1="0" y1="600" x2="1680" y2="600" stroke="#000" stroke-opacity="0.07" stroke-width="1"/>
<line x1="0" y1="620" x2="1680" y2="620" stroke="#000" stroke-opacity="0.07" stroke-width="1"/>
<line x1="0" y1="640" x2="1680" y2="640" stroke="#000" stroke-opacity="0.07" stroke-width="1"/>
<line x1="0" y1="660" x2="1680" y2="660" stroke="#000" stroke-opacity="0.07" stroke-width="1"/>
<line x1="0" y1="680" x2="1680" y2="680" stroke="#000" stroke-opacity="0.07" stroke-width="1"/>
<line x1="0" y1="700" x2="1680" y2="700" stroke="#000" stroke-opacity="0.07" stroke-width="1"/>
<line x1="0" y1="720" x2="1680" y2="720" stroke="#000" stroke-opacity="0.07" stroke-width="1"/>
<line x1="0" y1="740" x2="1680" y2="740" stroke="#000" stroke-opacity="0.07" stroke-width="1"/>
<line x1="0" y1="760" x2="1680" y2="760" stroke="#000" stroke-opacity="0.07" stroke-width="1"/>
<line x1="0" y1="780" x2="1680" y2="780" stroke="#000" stroke-opacity="0.07" stroke-width="1"/>
<line x1="0" y1="800" x2="1680" y2="800" stroke="#000" stroke-opacity="0.07" stroke-width="1"/>
<line x1="0" y1="820" x2="1680" y2="820" stroke="#000" stroke-opacity="0.07" stroke-width="1"/>
<line x1="0" y1="840" x2="1680" y2="840" stroke="#000" stroke-opacity="0.07" stroke-width="1"/>
<line x1="0" y1="860" x2="1680" y2="860" stroke="#000" stroke-opacity="0.07" stroke-width="1"/>
<line x1="0" y1="880" x2="1680" y2="880" stroke="#000" stroke-opacity="0.07" stroke-width="1"/>
<line x1="0" y1="900" x2="1680" y2="900" stroke="#000" stroke-opacity="0.07" stroke-width="1"/>
<line x1="0" y1="920" x2="1680" y2="920" stroke="#000" stroke-opacity="0.07" stroke-width="1"/>
<line x1="0" y1="940" x2="1680" y2="940" stroke="#000" stroke-opacity="0.07" stroke-width="1"/>
<line x1="0" y1="960" x2="1680" y2="960" stroke="#000" stroke-opacity="0.07" stroke-width="1"/>
<line x1="0" y1="980" x2="1680" y2="980" stroke="#000" stroke-opacity="0.07" stroke-width="1"/>
<line x1="0" y1="1000" x2="1680" y2="1000" stroke="#000" stroke-opacity="0.07" stroke-width="1"/>
<line x1="0" y1="1020" x2="1680" y2="1020" stroke="#000" stroke-opacity="0.07" stroke-width="1"/>
<line x1="0" y1="1040" x2="1680" y2="1040" stroke="#000" stroke-opacity="0.07" stroke-width="1"/>
<line x1="0" y1="1060" x2="1680" y2="1060" stroke="#000" stroke-opacity="0.07" stroke-width="1"/>
<line x1="0" y1="1080" x2="1680" y2="1080" stroke="#000" stroke-opacity="0.07" stroke-width="1"/>
<rect x="4" y="4" width="1672" height="1072" fill="none" stroke="#2A2E35" stroke-width="8" stroke-dasharray="8 6"/>
<ellipse cx="840" cy="620" rx="300" ry="120" fill="#EED692" stroke="#C9A24A" stroke-width="3"/>
<ellipse cx="1370.0" cy="550.0" rx="44.0" ry="80" fill="#EED692" stroke="#C9A24A" stroke-width="3"/>
<ellipse cx="1580" cy="1020" rx="70.0" ry="40" fill="#EED692" stroke="#C9A24A" stroke-width="3"/>
<ellipse cx="80" cy="90.0" rx="60" ry="50.0" fill="#EED692" stroke="#C9A24A" stroke-width="3"/>
<path d="M0 0 H1680 V1080 H0 Z M16.0 16.0 V1064.0 H1664.0 V16.0 Z" fill="#5DBB4A" fill-rule="evenodd"/>
<rect x="16.0" y="16.0" width="1648.0" height="1048.0" fill="none" stroke="#FFFFFF" stroke-opacity="0.55" stroke-width="3"/>
<path d="M 937.4 216.1 L 934.3 214.8 L 931.1 213.3 L 927.8 211.7 L 924.4 209.8 L 920.8 207.8 L 917.2 205.6 L 913.4 203.3 L 909.6 200.8 L 905.6 198.3 L 901.6 195.6 L 897.5 192.8 L 893.3 189.9 L 889.0 186.9 L 884.7 183.8 L 880.2 180.7 L 875.7 177.5 L 871.2 174.3 L 866.6 171.0 L 861.9 167.7 L 857.2 164.4 L 852.5 161.1 L 847.7 157.7 L 842.9 154.4 L 838.1 151.1 L 833.2 147.9 L 828.3 144.7 L 823.4 141.5 L 818.5 138.5 L 813.5 135.4 L 808.6 132.5 L 803.7 129.7 L 798.8 126.9 L 793.8 124.3 L 788.9 121.8 L 784.0 119.5 L 779.2 117.2 L 774.3 115.2 L 769.5 113.3 L 764.7 111.5 L 760.0 110.0 L 755.3 108.6 L 750.5 107.3 L 745.7 106.1 L 740.8 105.0 L 735.9 103.9 L 731.0 103.0 L 726.1 102.1 L 721.1 101.4 L 716.1 100.7 L 711.1 100.0 L 706.1 99.5 L 701.0 99.0 L 696.0 98.6 L 690.9 98.2 L 685.8 97.9 L 680.7 97.6 L 675.5 97.4 L 670.4 97.3 L 665.3 97.2 L 660.2 97.1 L 655.0 97.1 L 649.9 97.1 L 644.8 97.2 L 639.6 97.2 L 634.5 97.3 L 629.4 97.5 L 624.3 97.6 L 619.2 97.8 L 614.2 97.9 L 609.1 98.1 L 604.1 98.3 L 599.1 98.5 L 594.1 98.7 L 589.1 99.0 L 584.2 99.2 L 579.3 99.4 L 574.4 99.5 L 569.6 99.7 L 564.8 99.9 L 560.0 100.0 L 555.2 100.1 L 550.5 100.2 L 545.7 100.3 L 540.8 100.4 L 536.0 100.6 L 531.2 100.7 L 526.3 100.8 L 521.5 100.9 L 516.6 101.0 L 511.8 101.1 L 506.9 101.3 L 502.1 101.4 L 497.2 101.6 L 492.4 101.8 L 487.6 102.0 L 482.8 102.2 L 478.0 102.5 L 473.3 102.8 L 468.6 103.1 L 463.9 103.4 L 459.2 103.8 L 454.6 104.2 L 450.0 104.7 L 445.4 105.2 L 440.9 105.7 L 436.4 106.3 L 432.0 106.9 L 427.6 107.5 L 423.3 108.2 L 419.0 109.0 L 414.8 109.8 L 410.7 110.7 L 406.6 111.6 L 402.6 112.6 L 398.6 113.7 L 394.8 114.8 L 390.9 116.0 L 387.2 117.3 L 383.6 118.6 L 380.0 120.0 L 376.5 121.5 L 373.1 123.2 L 369.7 125.0 L 366.3 126.9 L 363.0 128.9 L 359.8 131.1 L 356.6 133.3 L 353.5 135.7 L 350.4 138.1 L 347.4 140.7 L 344.4 143.3 L 341.5 145.9 L 338.6 148.6 L 335.8 151.4 L 333.0 154.2 L 330.3 157.1 L 327.6 159.9 L 325.0 162.8 L 322.4 165.7 L 319.8 168.6 L 317.3 171.5 L 314.9 174.4 L 312.5 177.3 L 310.1 180.1 L 307.8 182.9 L 305.5 185.7 L 303.3 188.4 L 301.1 191.0 L 298.9 193.6 L 296.8 196.1 L 294.8 198.5 L 292.7 200.8 L 290.8 203.0 L 288.8 205.1 L 286.9 207.1 L 285.1 209.0 L 283.2 210.7 L 281.4 212.3 L 279.7 213.8 L 278.0 215.1" fill="none" stroke="#FFFFFF" stroke-opacity="0.35" stroke-width="80.0" stroke-linejoin="round" stroke-linecap="round"/>
<path d="M 937.4 216.1 L 934.3 214.8 L 931.1 213.3 L 927.8 211.7 L 924.4 209.8 L 920.8 207.8 L 917.2 205.6 L 913.4 203.3 L 909.6 200.8 L 905.6 198.3 L 901.6 195.6 L 897.5 192.8 L 893.3 189.9 L 889.0 186.9 L 884.7 183.8 L 880.2 180.7 L 875.7 177.5 L 871.2 174.3 L 866.6 171.0 L 861.9 167.7 L 857.2 164.4 L 852.5 161.1 L 847.7 157.7 L 842.9 154.4 L 838.1 151.1 L 833.2 147.9 L 828.3 144.7 L 823.4 141.5 L 818.5 138.5 L 813.5 135.4 L 808.6 132.5 L 803.7 129.7 L 798.8 126.9 L 793.8 124.3 L 788.9 121.8 L 784.0 119.5 L 779.2 117.2 L 774.3 115.2 L 769.5 113.3 L 764.7 111.5 L 760.0 110.0 L 755.3 108.6 L 750.5 107.3 L 745.7 106.1 L 740.8 105.0 L 735.9 103.9 L 731.0 103.0 L 726.1 102.1 L 721.1 101.4 L 716.1 100.7 L 711.1 100.0 L 706.1 99.5 L 701.0 99.0 L 696.0 98.6 L 690.9 98.2 L 685.8 97.9 L 680.7 97.6 L 675.5 97.4 L 670.4 97.3 L 665.3 97.2 L 660.2 97.1 L 655.0 97.1 L 649.9 97.1 L 644.8 97.2 L 639.6 97.2 L 634.5 97.3 L 629.4 97.5 L 624.3 97.6 L 619.2 97.8 L 614.2 97.9 L 609.1 98.1 L 604.1 98.3 L 599.1 98.5 L 594.1 98.7 L 589.1 99.0 L 584.2 99.2 L 579.3 99.4 L 574.4 99.5 L 569.6 99.7 L 564.8 99.9 L 560.0 100.0 L 555.2 100.1 L 550.5 100.2 L 545.7 100.3 L 540.8 100.4 L 536.0 100.6 L 531.2 100.7 L 526.3 100.8 L 521.5 100.9 L 516.6 101.0 L 511.8 101.1 L 506.9 101.3 L 502.1 101.4 L 497.2 101.6 L 492.4 101.8 L 487.6 102.0 L 482.8 102.2 L 478.0 102.5 L 473.3 102.8 L 468.6 103.1 L 463.9 103.4 L 459.2 103.8 L 454.6 104.2 L 450.0 104.7 L 445.4 105.2 L 440.9 105.7 L 436.4 106.3 L 432.0 106.9 L 427.6 107.5 L 423.3 108.2 L 419.0 109.0 L 414.8 109.8 L 410.7 110.7 L 406.6 111.6 L 402.6 112.6 L 398.6 113.7 L 394.8 114.8 L 390.9 116.0 L 387.2 117.3 L 383.6 118.6 L 380.0 120.0 L 376.5 121.5 L 373.1 123.2 L 369.7 125.0 L 366.3 126.9 L 363.0 128.9 L 359.8 131.1 L 356.6 133.3 L 353.5 135.7 L 350.4 138.1 L 347.4 140.7 L 344.4 143.3 L 341.5 145.9 L 338.6 148.6 L 335.8 151.4 L 333.0 154.2 L 330.3 157.1 L 327.6 159.9 L 325.0 162.8 L 322.4 165.7 L 319.8 168.6 L 317.3 171.5 L 314.9 174.4 L 312.5 177.3 L 310.1 180.1 L 307.8 182.9 L 305.5 185.7 L 303.3 188.4 L 301.1 191.0 L 298.9 193.6 L 296.8 196.1 L 294.8 198.5 L 292.7 200.8 L 290.8 203.0 L 288.8 205.1 L 286.9 207.1 L 285.1 209.0 L 283.2 210.7 L 281.4 212.3 L 279.7 213.8 L 278.0 215.1" fill="none" stroke="#3E92C6" stroke-width="70.0" stroke-linejoin="round" stroke-linecap="round"/>
<path d="M 937.4 216.1 L 934.3 214.8 L 931.1 213.3 L 927.8 211.7 L 924.4 209.8 L 920.8 207.8 L 917.2 205.6 L 913.4 203.3 L 909.6 200.8 L 905.6 198.3 L 901.6 195.6 L 897.5 192.8 L 893.3 189.9 L 889.0 186.9 L 884.7 183.8 L 880.2 180.7 L 875.7 177.5 L 871.2 174.3 L 866.6 171.0 L 861.9 167.7 L 857.2 164.4 L 852.5 161.1 L 847.7 157.7 L 842.9 154.4 L 838.1 151.1 L 833.2 147.9 L 828.3 144.7 L 823.4 141.5 L 818.5 138.5 L 813.5 135.4 L 808.6 132.5 L 803.7 129.7 L 798.8 126.9 L 793.8 124.3 L 788.9 121.8 L 784.0 119.5 L 779.2 117.2 L 774.3 115.2 L 769.5 113.3 L 764.7 111.5 L 760.0 110.0 L 755.3 108.6 L 750.5 107.3 L 745.7 106.1 L 740.8 105.0 L 735.9 103.9 L 731.0 103.0 L 726.1 102.1 L 721.1 101.4 L 716.1 100.7 L 711.1 100.0 L 706.1 99.5 L 701.0 99.0 L 696.0 98.6 L 690.9 98.2 L 685.8 97.9 L 680.7 97.6 L 675.5 97.4 L 670.4 97.3 L 665.3 97.2 L 660.2 97.1 L 655.0 97.1 L 649.9 97.1 L 644.8 97.2 L 639.6 97.2 L 634.5 97.3 L 629.4 97.5 L 624.3 97.6 L 619.2 97.8 L 614.2 97.9 L 609.1 98.1 L 604.1 98.3 L 599.1 98.5 L 594.1 98.7 L 589.1 99.0 L 584.2 99.2 L 579.3 99.4 L 574.4 99.5 L 569.6 99.7 L 564.8 99.9 L 560.0 100.0 L 555.2 100.1 L 550.5 100.2 L 545.7 100.3 L 540.8 100.4 L 536.0 100.6 L 531.2 100.7 L 526.3 100.8 L 521.5 100.9 L 516.6 101.0 L 511.8 101.1 L 506.9 101.3 L 502.1 101.4 L 497.2 101.6 L 492.4 101.8 L 487.6 102.0 L 482.8 102.2 L 478.0 102.5 L 473.3 102.8 L 468.6 103.1 L 463.9 103.4 L 459.2 103.8 L 454.6 104.2 L 450.0 104.7 L 445.4 105.2 L 440.9 105.7 L 436.4 106.3 L 432.0 106.9 L 427.6 107.5 L 423.3 108.2 L 419.0 109.0 L 414.8 109.8 L 410.7 110.7 L 406.6 111.6 L 402.6 112.6 L 398.6 113.7 L 394.8 114.8 L 390.9 116.0 L 387.2 117.3 L 383.6 118.6 L 380.0 120.0 L 376.5 121.5 L 373.1 123.2 L 369.7 125.0 L 366.3 126.9 L 363.0 128.9 L 359.8 131.1 L 356.6 133.3 L 353.5 135.7 L 350.4 138.1 L 347.4 140.7 L 344.4 143.3 L 341.5 145.9 L 338.6 148.6 L 335.8 151.4 L 333.0 154.2 L 330.3 157.1 L 327.6 159.9 L 325.0 162.8 L 322.4 165.7 L 319.8 168.6 L 317.3 171.5 L 314.9 174.4 L 312.5 177.3 L 310.1 180.1 L 307.8 182.9 L 305.5 185.7 L 303.3 188.4 L 301.1 191.0 L 298.9 193.6 L 296.8 196.1 L 294.8 198.5 L 292.7 200.8 L 290.8 203.0 L 288.8 205.1 L 286.9 207.1 L 285.1 209.0 L 283.2 210.7 L 281.4 212.3 L 279.7 213.8 L 278.0 215.1" fill="none" stroke="#FFD23F" stroke-opacity="0.9" stroke-width="2" stroke-dasharray="3 7"/>
<text x="560.0" y="57.0" text-anchor="middle" font-size="10" fill="#FFFFFF" stroke="#0E141C" stroke-width="3" paint-order="stroke">REED RUN</text>
<path d="M 1435.9 758.8 L 1434.3 756.8 L 1432.3 754.7 L 1430.1 752.6 L 1427.6 750.4 L 1424.8 748.2 L 1421.8 745.9 L 1418.5 743.5 L 1415.0 741.1 L 1411.3 738.6 L 1407.4 736.1 L 1403.4 733.6 L 1399.2 730.9 L 1394.8 728.3 L 1390.3 725.5 L 1385.7 722.8 L 1381.0 719.9 L 1376.3 717.1 L 1371.4 714.2 L 1366.5 711.2 L 1361.6 708.2 L 1356.7 705.1 L 1351.7 702.1 L 1346.8 698.9 L 1341.9 695.7 L 1337.1 692.5 L 1332.3 689.3 L 1327.5 686.0 L 1322.9 682.6 L 1318.4 679.3 L 1314.0 675.9 L 1309.7 672.4 L 1305.6 668.9 L 1301.6 665.4 L 1297.9 661.9 L 1294.3 658.3 L 1291.0 654.7 L 1287.8 651.1 L 1285.0 647.4 L 1282.3 643.7 L 1280.0 640.0 L 1277.8 636.2 L 1275.8 632.3 L 1273.7 628.3 L 1271.8 624.3 L 1270.0 620.1 L 1268.2 615.9 L 1266.5 611.6 L 1264.9 607.2 L 1263.3 602.8 L 1261.9 598.2 L 1260.5 593.7 L 1259.2 589.1 L 1258.0 584.4 L 1256.9 579.7 L 1255.9 575.0 L 1255.0 570.2 L 1254.1 565.5 L 1253.3 560.7 L 1252.6 555.8 L 1252.0 551.0 L 1251.5 546.2 L 1251.1 541.3 L 1250.8 536.5 L 1250.6 531.7 L 1250.4 526.9 L 1250.4 522.1 L 1250.4 517.4 L 1250.6 512.6 L 1250.8 507.9 L 1251.2 503.3 L 1251.6 498.7 L 1252.1 494.1 L 1252.8 489.6 L 1253.5 485.1 L 1254.3 480.8 L 1255.3 476.5 L 1256.3 472.2 L 1257.4 468.1 L 1258.7 464.0 L 1260.0 460.0 L 1261.5 456.1 L 1263.4 452.1 L 1265.4 448.2 L 1267.8 444.3 L 1270.4 440.3 L 1273.1 436.4 L 1276.1 432.5 L 1279.3 428.6 L 1282.7 424.7 L 1286.2 420.9 L 1289.9 417.0 L 1293.7 413.2 L 1297.6 409.4 L 1301.6 405.7 L 1305.7 401.9 L 1309.9 398.2 L 1314.1 394.6 L 1318.4 391.0 L 1322.7 387.4 L 1327.0 383.8 L 1331.3 380.3 L 1335.5 376.8 L 1339.7 373.4 L 1343.9 370.1 L 1348.0 366.8 L 1352.1 363.5 L 1356.0 360.3 L 1359.8 357.2 L 1363.5 354.1 L 1367.1 351.1 L 1370.4 348.1 L 1373.7 345.2 L 1376.7 342.4 L 1379.5 339.7 L 1382.1 337.0 L 1384.5 334.5 L 1386.6 332.0 L 1388.5 329.5 L 1390.1 327.2 L 1391.4 325.0" fill="none" stroke="#FFFFFF" stroke-opacity="0.35" stroke-width="80.0" stroke-linejoin="round" stroke-linecap="round"/>
<path d="M 1435.9 758.8 L 1434.3 756.8 L 1432.3 754.7 L 1430.1 752.6 L 1427.6 750.4 L 1424.8 748.2 L 1421.8 745.9 L 1418.5 743.5 L 1415.0 741.1 L 1411.3 738.6 L 1407.4 736.1 L 1403.4 733.6 L 1399.2 730.9 L 1394.8 728.3 L 1390.3 725.5 L 1385.7 722.8 L 1381.0 719.9 L 1376.3 717.1 L 1371.4 714.2 L 1366.5 711.2 L 1361.6 708.2 L 1356.7 705.1 L 1351.7 702.1 L 1346.8 698.9 L 1341.9 695.7 L 1337.1 692.5 L 1332.3 689.3 L 1327.5 686.0 L 1322.9 682.6 L 1318.4 679.3 L 1314.0 675.9 L 1309.7 672.4 L 1305.6 668.9 L 1301.6 665.4 L 1297.9 661.9 L 1294.3 658.3 L 1291.0 654.7 L 1287.8 651.1 L 1285.0 647.4 L 1282.3 643.7 L 1280.0 640.0 L 1277.8 636.2 L 1275.8 632.3 L 1273.7 628.3 L 1271.8 624.3 L 1270.0 620.1 L 1268.2 615.9 L 1266.5 611.6 L 1264.9 607.2 L 1263.3 602.8 L 1261.9 598.2 L 1260.5 593.7 L 1259.2 589.1 L 1258.0 584.4 L 1256.9 579.7 L 1255.9 575.0 L 1255.0 570.2 L 1254.1 565.5 L 1253.3 560.7 L 1252.6 555.8 L 1252.0 551.0 L 1251.5 546.2 L 1251.1 541.3 L 1250.8 536.5 L 1250.6 531.7 L 1250.4 526.9 L 1250.4 522.1 L 1250.4 517.4 L 1250.6 512.6 L 1250.8 507.9 L 1251.2 503.3 L 1251.6 498.7 L 1252.1 494.1 L 1252.8 489.6 L 1253.5 485.1 L 1254.3 480.8 L 1255.3 476.5 L 1256.3 472.2 L 1257.4 468.1 L 1258.7 464.0 L 1260.0 460.0 L 1261.5 456.1 L 1263.4 452.1 L 1265.4 448.2 L 1267.8 444.3 L 1270.4 440.3 L 1273.1 436.4 L 1276.1 432.5 L 1279.3 428.6 L 1282.7 424.7 L 1286.2 420.9 L 1289.9 417.0 L 1293.7 413.2 L 1297.6 409.4 L 1301.6 405.7 L 1305.7 401.9 L 1309.9 398.2 L 1314.1 394.6 L 1318.4 391.0 L 1322.7 387.4 L 1327.0 383.8 L 1331.3 380.3 L 1335.5 376.8 L 1339.7 373.4 L 1343.9 370.1 L 1348.0 366.8 L 1352.1 363.5 L 1356.0 360.3 L 1359.8 357.2 L 1363.5 354.1 L 1367.1 351.1 L 1370.4 348.1 L 1373.7 345.2 L 1376.7 342.4 L 1379.5 339.7 L 1382.1 337.0 L 1384.5 334.5 L 1386.6 332.0 L 1388.5 329.5 L 1390.1 327.2 L 1391.4 325.0" fill="none" stroke="#3E92C6" stroke-width="70.0" stroke-linejoin="round" stroke-linecap="round"/>
<path d="M -5 -7 L 4 0 L -5 7" fill="none" stroke="#FFFFFF" stroke-opacity="0.9" stroke-width="3" transform="translate(1361.6 708.2) rotate(-148.4)"/>
<path d="M -5 -7 L 4 0 L -5 7" fill="none" stroke="#FFFFFF" stroke-opacity="0.9" stroke-width="3" transform="translate(1305.6 668.9) rotate(-139.1)"/>
<path d="M -5 -7 L 4 0 L -5 7" fill="none" stroke="#FFFFFF" stroke-opacity="0.9" stroke-width="3" transform="translate(1271.8 624.3) rotate(-114.7)"/>
<path d="M -5 -7 L 4 0 L -5 7" fill="none" stroke="#FFFFFF" stroke-opacity="0.9" stroke-width="3" transform="translate(1255.0 570.2) rotate(-100.7)"/>
<path d="M -5 -7 L 4 0 L -5 7" fill="none" stroke="#FFFFFF" stroke-opacity="0.9" stroke-width="3" transform="translate(1250.6 512.6) rotate(-87.7)"/>
<path d="M -5 -7 L 4 0 L -5 7" fill="none" stroke="#FFFFFF" stroke-opacity="0.9" stroke-width="3" transform="translate(1260.0 460.0) rotate(-70.0)"/>
<path d="M -5 -7 L 4 0 L -5 7" fill="none" stroke="#FFFFFF" stroke-opacity="0.9" stroke-width="3" transform="translate(1293.7 413.2) rotate(-44.6)"/>
<path d="M 1435.9 758.8 L 1434.3 756.8 L 1432.3 754.7 L 1430.1 752.6 L 1427.6 750.4 L 1424.8 748.2 L 1421.8 745.9 L 1418.5 743.5 L 1415.0 741.1 L 1411.3 738.6 L 1407.4 736.1 L 1403.4 733.6 L 1399.2 730.9 L 1394.8 728.3 L 1390.3 725.5 L 1385.7 722.8 L 1381.0 719.9 L 1376.3 717.1 L 1371.4 714.2 L 1366.5 711.2 L 1361.6 708.2 L 1356.7 705.1 L 1351.7 702.1 L 1346.8 698.9 L 1341.9 695.7 L 1337.1 692.5 L 1332.3 689.3 L 1327.5 686.0 L 1322.9 682.6 L 1318.4 679.3 L 1314.0 675.9 L 1309.7 672.4 L 1305.6 668.9 L 1301.6 665.4 L 1297.9 661.9 L 1294.3 658.3 L 1291.0 654.7 L 1287.8 651.1 L 1285.0 647.4 L 1282.3 643.7 L 1280.0 640.0 L 1277.8 636.2 L 1275.8 632.3 L 1273.7 628.3 L 1271.8 624.3 L 1270.0 620.1 L 1268.2 615.9 L 1266.5 611.6 L 1264.9 607.2 L 1263.3 602.8 L 1261.9 598.2 L 1260.5 593.7 L 1259.2 589.1 L 1258.0 584.4 L 1256.9 579.7 L 1255.9 575.0 L 1255.0 570.2 L 1254.1 565.5 L 1253.3 560.7 L 1252.6 555.8 L 1252.0 551.0 L 1251.5 546.2 L 1251.1 541.3 L 1250.8 536.5 L 1250.6 531.7 L 1250.4 526.9 L 1250.4 522.1 L 1250.4 517.4 L 1250.6 512.6 L 1250.8 507.9 L 1251.2 503.3 L 1251.6 498.7 L 1252.1 494.1 L 1252.8 489.6 L 1253.5 485.1 L 1254.3 480.8 L 1255.3 476.5 L 1256.3 472.2 L 1257.4 468.1 L 1258.7 464.0 L 1260.0 460.0 L 1261.5 456.1 L 1263.4 452.1 L 1265.4 448.2 L 1267.8 444.3 L 1270.4 440.3 L 1273.1 436.4 L 1276.1 432.5 L 1279.3 428.6 L 1282.7 424.7 L 1286.2 420.9 L 1289.9 417.0 L 1293.7 413.2 L 1297.6 409.4 L 1301.6 405.7 L 1305.7 401.9 L 1309.9 398.2 L 1314.1 394.6 L 1318.4 391.0 L 1322.7 387.4 L 1327.0 383.8 L 1331.3 380.3 L 1335.5 376.8 L 1339.7 373.4 L 1343.9 370.1 L 1348.0 366.8 L 1352.1 363.5 L 1356.0 360.3 L 1359.8 357.2 L 1363.5 354.1 L 1367.1 351.1 L 1370.4 348.1 L 1373.7 345.2 L 1376.7 342.4 L 1379.5 339.7 L 1382.1 337.0 L 1384.5 334.5 L 1386.6 332.0 L 1388.5 329.5 L 1390.1 327.2 L 1391.4 325.0" fill="none" stroke="#FFD23F" stroke-opacity="0.9" stroke-width="2" stroke-dasharray="3 7"/>
<text x="1252.0" y="508.0" text-anchor="middle" font-size="10" fill="#FFFFFF" stroke="#0E141C" stroke-width="3" paint-order="stroke">DUCK ISLAND</text>
<path d="M 280.0 860.0 L 284.9 861.3 L 289.9 862.5 L 295.2 863.8 L 300.7 865.1 L 306.4 866.4 L 312.2 867.7 L 318.3 868.9 L 324.5 870.2 L 330.8 871.5 L 337.3 872.8 L 344.0 874.1 L 350.8 875.4 L 357.7 876.6 L 364.7 877.9 L 371.8 879.1 L 379.0 880.3 L 386.4 881.5 L 393.7 882.7 L 401.2 883.9 L 408.8 885.0 L 416.3 886.1 L 424.0 887.2 L 431.7 888.3 L 439.4 889.3 L 447.1 890.3 L 454.8 891.2 L 462.6 892.2 L 470.3 893.0 L 478.1 893.9 L 485.8 894.7 L 493.5 895.4 L 501.1 896.2 L 508.7 896.8 L 516.3 897.4 L 523.8 898.0 L 531.2 898.5 L 538.5 899.0 L 545.8 899.4 L 552.9 899.7 L 560.0 900.0 L 567.0 900.2 L 574.0 900.3 L 581.0 900.3 L 588.0 900.2 L 595.0 900.1 L 602.0 899.9 L 609.0 899.6 L 616.0 899.2 L 623.0 898.8 L 630.0 898.3 L 637.0 897.7 L 644.0 897.2 L 651.0 896.5 L 658.0 895.8 L 665.0 895.1 L 672.0 894.4 L 679.0 893.6 L 686.0 892.9 L 693.0 892.1 L 700.0 891.2 L 707.0 890.4 L 714.0 889.6 L 721.0 888.8 L 728.0 888.0 L 735.0 887.2 L 742.0 886.4 L 749.0 885.7 L 756.0 885.0 L 763.0 884.3 L 770.0 883.6 L 777.0 883.0 L 784.0 882.4 L 791.0 881.9 L 798.0 881.4 L 805.0 881.0 L 812.0 880.6 L 819.0 880.4 L 826.0 880.2 L 833.0 880.0 L 840.0 880.0 L 847.0 880.0 L 854.1 880.2 L 861.2 880.4 L 868.3 880.7 L 875.4 881.1 L 882.6 881.6 L 889.8 882.1 L 897.0 882.7 L 904.2 883.4 L 911.4 884.1 L 918.6 884.8 L 925.9 885.6 L 933.1 886.4 L 940.4 887.2 L 947.6 888.1 L 954.9 889.0 L 962.1 889.8 L 969.3 890.7 L 976.6 891.6 L 983.8 892.5 L 990.9 893.4 L 998.1 894.2 L 1005.2 895.0 L 1012.3 895.8 L 1019.4 896.6 L 1026.4 897.3 L 1033.4 898.0 L 1040.4 898.6 L 1047.3 899.2 L 1054.2 899.7 L 1061.1 900.1 L 1067.8 900.5 L 1074.6 900.8 L 1081.3 901.0 L 1087.9 901.1 L 1094.4 901.1 L 1100.9 901.0 L 1107.4 900.8 L 1113.7 900.4 L 1120.0 900.0 L 1126.2 899.5 L 1132.4 898.9 L 1138.6 898.3 L 1144.8 897.7 L 1150.9 897.0 L 1157.0 896.3 L 1163.1 895.5 L 1169.1 894.7 L 1175.1 893.9 L 1181.1 893.0 L 1187.0 892.0 L 1192.9 891.0 L 1198.8 890.0 L 1204.6 888.9 L 1210.4 887.8 L 1216.2 886.6 L 1221.9 885.3 L 1227.5 884.0 L 1233.2 882.7 L 1238.8 881.2 L 1244.3 879.8 L 1249.8 878.3 L 1255.2 876.7 L 1260.6 875.0 L 1266.0 873.3 L 1271.3 871.6 L 1276.6 869.8 L 1281.8 867.9 L 1286.9 865.9 L 1292.0 863.9 L 1297.1 861.8 L 1302.1 859.7 L 1307.0 857.5 L 1311.9 855.2 L 1316.7 852.8 L 1321.5 850.4 L 1326.2 847.9 L 1330.9 845.4 L 1335.5 842.7 L 1340.0 840.0 L 1344.5 837.2 L 1349.0 834.4 L 1353.5 831.4 L 1358.0 828.4 L 1362.4 825.3 L 1366.9 822.2 L 1371.3 819.0 L 1375.7 815.7 L 1380.0 812.3 L 1384.4 808.9 L 1388.7 805.4 L 1392.9 801.9 L 1397.1 798.3 L 1401.3 794.6 L 1405.4 790.8 L 1409.4 787.0 L 1413.4 783.2 L 1417.4 779.3 L 1421.2 775.3 L 1425.0 771.2 L 1428.7 767.2 L 1432.3 763.0 L 1435.9 758.8 L 1439.4 754.6 L 1442.7 750.3 L 1446.0 745.9 L 1449.2 741.5 L 1452.3 737.0 L 1455.3 732.5 L 1458.1 728.0 L 1460.9 723.4 L 1463.5 718.7 L 1466.0 714.0 L 1468.4 709.3 L 1470.7 704.5 L 1472.8 699.7 L 1474.8 694.8 L 1476.7 689.9 L 1478.4 685.0 L 1480.0 680.0 L 1481.4 674.9 L 1482.8 669.7 L 1483.9 664.4 L 1485.0 659.0 L 1486.0 653.4 L 1486.8 647.8 L 1487.5 642.0 L 1488.2 636.2 L 1488.7 630.2 L 1489.1 624.2 L 1489.4 618.1 L 1489.5 612.0 L 1489.6 605.8 L 1489.6 599.5 L 1489.5 593.2 L 1489.3 586.9 L 1489.0 580.5 L 1488.6 574.1 L 1488.1 567.7 L 1487.5 561.2 L 1486.8 554.8 L 1486.1 548.4 L 1485.2 541.9 L 1484.3 535.5 L 1483.3 529.1 L 1482.2 522.7 L 1481.1 516.4 L 1479.9 510.1 L 1478.6 503.9 L 1477.2 497.7 L 1475.7 491.5 L 1474.2 485.4 L 1472.7 479.4 L 1471.0 473.5 L 1469.3 467.7 L 1467.6 461.9 L 1465.8 456.3 L 1463.9 450.7 L 1462.0 445.3 L 1460.0 440.0 L 1458.0 434.8 L 1455.8 429.5 L 1453.6 424.3 L 1451.2 419.0 L 1448.8 413.8 L 1446.3 408.6 L 1443.7 403.4 L 1441.0 398.2 L 1438.2 393.1 L 1435.3 388.0 L 1432.4 382.9 L 1429.3 377.8 L 1426.2 372.8 L 1423.1 367.8 L 1419.8 362.8 L 1416.5 357.9 L 1413.1 353.1 L 1409.6 348.2 L 1406.1 343.5 L 1402.5 338.8 L 1398.8 334.1 L 1395.1 329.5 L 1391.4 325.0 L 1387.5 320.5 L 1383.6 316.1 L 1379.7 311.7 L 1375.7 307.5 L 1371.7 303.3 L 1367.6 299.2 L 1363.4 295.2 L 1359.3 291.2 L 1355.0 287.4 L 1350.8 283.6 L 1346.5 279.9 L 1342.1 276.3 L 1337.8 272.9 L 1333.4 269.5 L 1328.9 266.2 L 1324.5 263.1 L 1320.0 260.0 L 1315.5 257.0 L 1310.8 254.2 L 1306.1 251.4 L 1301.3 248.7 L 1296.5 246.1 L 1291.5 243.5 L 1286.5 241.1 L 1281.4 238.7 L 1276.3 236.4 L 1271.1 234.2 L 1265.8 232.1 L 1260.5 230.0 L 1255.1 228.1 L 1249.7 226.1 L 1244.2 224.3 L 1238.7 222.6 L 1233.2 220.9 L 1227.6 219.3 L 1221.9 217.7 L 1216.2 216.2 L 1210.5 214.8 L 1204.8 213.5 L 1199.1 212.2 L 1193.3 211.0 L 1187.5 209.9 L 1181.7 208.8 L 1175.8 207.8 L 1170.0 206.9 L 1164.1 206.0 L 1158.3 205.2 L 1152.4 204.4 L 1146.6 203.7 L 1140.7 203.0 L 1134.8 202.4 L 1129.0 201.9 L 1123.2 201.4 L 1117.3 201.0 L 1111.5 200.6 L 1105.8 200.3 L 1100.0 200.0 L 1094.2 199.8 L 1088.3 199.6 L 1082.4 199.6 L 1076.4 199.6 L 1070.3 199.7 L 1064.1 199.8 L 1057.9 200.0 L 1051.7 200.3 L 1045.4 200.7 L 1039.1 201.1 L 1032.7 201.6 L 1026.3 202.1 L 1019.9 202.7 L 1013.5 203.4 L 1007.1 204.2 L 1000.6 205.0 L 994.2 205.8 L 987.8 206.7 L 981.4 207.7 L 975.0 208.8 L 968.6 209.8 L 962.3 211.0 L 956.0 212.2 L 949.8 213.4 L 943.6 214.7 L 937.4 216.1 L 931.3 217.5 L 925.3 219.0 L 919.3 220.5 L 913.4 222.0 L 907.6 223.6 L 901.9 225.3 L 896.3 227.0 L 890.8 228.7 L 885.4 230.5 L 880.0 232.3 L 874.8 234.2 L 869.8 236.1 L 864.8 238.0 L 860.0 240.0 L 855.3 242.1 L 850.7 244.3 L 846.3 246.6 L 841.9 249.0 L 837.7 251.6 L 833.6 254.2 L 829.5 257.0 L 825.6 259.8 L 821.7 262.8 L 818.0 265.8 L 814.3 268.9 L 810.6 272.0 L 807.1 275.2 L 803.6 278.5 L 800.2 281.8 L 796.8 285.1 L 793.5 288.5 L 790.2 291.9 L 787.0 295.3 L 783.8 298.8 L 780.6 302.2 L 777.4 305.6 L 774.3 309.1 L 771.2 312.5 L 768.1 315.9 L 765.0 319.3 L 761.9 322.6 L 758.9 325.9 L 755.8 329.1 L 752.7 332.3 L 749.5 335.5 L 746.4 338.6 L 743.2 341.6 L 740.0 344.5 L 736.8 347.3 L 733.6 350.1 L 730.2 352.7 L 726.9 355.3 L 723.5 357.7 L 720.0 360.0 L 716.5 362.3 L 713.0 364.5 L 709.6 366.8 L 706.1 369.0 L 702.6 371.3 L 699.2 373.5 L 695.8 375.7 L 692.3 377.9 L 688.9 380.1 L 685.5 382.3 L 682.0 384.4 L 678.6 386.5 L 675.2 388.6 L 671.8 390.6 L 668.4 392.6 L 665.0 394.6 L 661.5 396.5 L 658.1 398.3 L 654.7 400.1 L 651.2 401.9 L 647.8 403.6 L 644.4 405.2 L 640.9 406.7 L 637.4 408.2 L 634.0 409.7 L 630.5 411.0 L 627.0 412.3 L 623.5 413.4 L 619.9 414.5 L 616.4 415.5 L 612.9 416.5 L 609.3 417.3 L 605.7 418.0 L 602.1 418.6 L 598.5 419.1 L 594.8 419.5 L 591.1 419.8 L 587.5 420.0 L 583.7 420.1 L 580.0 420.0 L 576.2 419.8 L 572.4 419.5 L 568.5 419.1 L 564.6 418.5 L 560.7 417.9 L 556.7 417.1 L 552.7 416.3 L 548.6 415.3 L 544.6 414.2 L 540.5 413.0 L 536.3 411.8 L 532.2 410.4 L 528.1 409.0 L 523.9 407.5 L 519.7 405.9 L 515.5 404.2 L 511.3 402.5 L 507.1 400.7 L 502.9 398.8 L 498.8 396.9 L 494.6 394.9 L 490.4 392.8 L 486.2 390.7 L 482.1 388.6 L 477.9 386.4 L 473.8 384.1 L 469.8 381.8 L 465.7 379.5 L 461.7 377.2 L 457.7 374.8 L 453.7 372.4 L 449.8 369.9 L 445.9 367.5 L 442.0 365.0 L 438.2 362.5 L 434.5 360.0 L 430.8 357.5 L 427.1 355.0 L 423.5 352.5 L 420.0 350.0 L 416.5 347.4 L 413.1 344.7 L 409.7 341.7 L 406.4 338.7 L 403.1 335.5 L 399.8 332.1 L 396.6 328.7 L 393.4 325.1 L 390.3 321.5 L 387.2 317.7 L 384.1 313.9 L 381.1 310.1 L 378.0 306.1 L 375.0 302.2 L 372.1 298.2 L 369.1 294.2 L 366.2 290.1 L 363.3 286.1 L 360.4 282.1 L 357.5 278.1 L 354.6 274.2 L 351.8 270.3 L 348.9 266.4 L 346.1 262.6 L 343.2 258.9 L 340.4 255.3 L 337.6 251.8 L 334.7 248.4 L 331.9 245.1 L 329.1 242.0 L 326.2 238.9 L 323.4 236.1 L 320.5 233.4 L 317.6 230.9 L 314.7 228.5 L 311.8 226.4 L 308.9 224.5 L 306.0 222.7 L 303.0 221.2 L 300.0 220.0 L 297.0 218.9 L 293.9 218.0 L 290.8 217.2 L 287.6 216.5 L 284.5 215.9 L 281.2 215.4 L 278.0 215.1 L 274.7 214.9 L 271.4 214.8 L 268.1 214.8 L 264.8 214.9 L 261.5 215.1 L 258.1 215.4 L 254.8 215.9 L 251.5 216.4 L 248.2 217.0 L 244.8 217.8 L 241.5 218.6 L 238.3 219.6 L 235.0 220.6 L 231.8 221.8 L 228.6 223.0 L 225.4 224.3 L 222.2 225.8 L 219.1 227.3 L 216.1 228.9 L 213.1 230.6 L 210.1 232.4 L 207.2 234.2 L 204.4 236.2 L 201.6 238.2 L 198.9 240.3 L 196.2 242.5 L 193.7 244.8 L 191.2 247.1 L 188.8 249.6 L 186.4 252.1 L 184.2 254.6 L 182.0 257.3 L 180.0 260.0 L 178.0 262.8 L 176.1 265.8 L 174.3 269.0 L 172.5 272.2 L 170.8 275.7 L 169.1 279.2 L 167.5 282.9 L 165.9 286.7 L 164.4 290.6 L 163.0 294.7 L 161.6 298.8 L 160.2 303.1 L 158.9 307.4 L 157.7 311.9 L 156.5 316.4 L 155.4 321.0 L 154.3 325.6 L 153.2 330.4 L 152.2 335.2 L 151.2 340.0 L 150.3 344.9 L 149.5 349.8 L 148.6 354.8 L 147.8 359.8 L 147.1 364.9 L 146.4 369.9 L 145.7 375.0 L 145.1 380.1 L 144.5 385.2 L 143.9 390.3 L 143.4 395.4 L 142.9 400.5 L 142.4 405.5 L 142.0 410.6 L 141.6 415.6 L 141.2 420.6 L 140.9 425.5 L 140.6 430.4 L 140.3 435.2 L 140.0 440.0 L 139.8 444.8 L 139.6 449.6 L 139.6 454.5 L 139.6 459.4 L 139.6 464.3 L 139.7 469.3 L 139.9 474.3 L 140.2 479.4 L 140.4 484.4 L 140.8 489.5 L 141.2 494.7 L 141.6 499.8 L 142.1 504.9 L 142.6 510.1 L 143.1 515.3 L 143.7 520.5 L 144.3 525.7 L 144.9 530.9 L 145.6 536.1 L 146.2 541.2 L 146.9 546.4 L 147.7 551.6 L 148.4 556.8 L 149.1 561.9 L 149.9 567.1 L 150.6 572.2 L 151.4 577.2 L 152.1 582.3 L 152.9 587.3 L 153.6 592.3 L 154.3 597.3 L 155.0 602.2 L 155.7 607.1 L 156.4 612.0 L 157.1 616.8 L 157.7 621.5 L 158.3 626.2 L 158.9 630.9 L 159.5 635.5 L 160.0 640.0 L 160.5 644.5 L 160.9 649.0 L 161.3 653.5 L 161.6 658.1 L 162.0 662.6 L 162.2 667.1 L 162.5 671.6 L 162.7 676.2 L 162.9 680.7 L 163.1 685.2 L 163.3 689.6 L 163.5 694.1 L 163.6 698.5 L 163.8 702.9 L 164.0 707.3 L 164.2 711.7 L 164.3 716.0 L 164.5 720.3 L 164.8 724.5 L 165.0 728.8 L 165.3 732.9 L 165.6 737.0 L 165.9 741.1 L 166.2 745.1 L 166.6 749.1 L 167.1 753.0 L 167.6 756.8 L 168.1 760.6 L 168.7 764.3 L 169.4 768.0 L 170.1 771.5 L 170.9 775.0 L 171.7 778.5 L 172.7 781.8 L 173.7 785.1 L 174.8 788.2 L 175.9 791.3 L 177.2 794.3 L 178.5 797.2 L 180.0 800.0 L 181.5 802.7 L 183.0 805.3 L 184.5 807.8 L 185.9 810.1 L 187.4 812.4 L 188.9 814.6 L 190.5 816.7 L 192.0 818.7 L 193.6 820.6 L 195.2 822.5 L 196.8 824.3 L 198.5 826.0 L 200.2 827.6 L 201.9 829.2 L 203.7 830.7 L 205.6 832.2 L 207.5 833.6 L 209.5 834.9 L 211.6 836.2 L 213.8 837.5 L 216.0 838.7 L 218.3 839.9 L 220.7 841.1 L 223.2 842.2 L 225.8 843.4 L 228.5 844.5 L 231.3 845.5 L 234.2 846.6 L 237.3 847.7 L 240.5 848.8 L 243.8 849.8 L 247.2 850.9 L 250.8 852.0 L 254.5 853.0 L 258.3 854.1 L 262.4 855.3 L 266.5 856.4 L 270.8 857.6 L 275.3 858.8 Z" fill="none" stroke="#FFFFFF" stroke-opacity="0.35" stroke-width="110.0" stroke-linejoin="round"/>
<path d="M 280.0 860.0 L 284.9 861.3 L 289.9 862.5 L 295.2 863.8 L 300.7 865.1 L 306.4 866.4 L 312.2 867.7 L 318.3 868.9 L 324.5 870.2 L 330.8 871.5 L 337.3 872.8 L 344.0 874.1 L 350.8 875.4 L 357.7 876.6 L 364.7 877.9 L 371.8 879.1 L 379.0 880.3 L 386.4 881.5 L 393.7 882.7 L 401.2 883.9 L 408.8 885.0 L 416.3 886.1 L 424.0 887.2 L 431.7 888.3 L 439.4 889.3 L 447.1 890.3 L 454.8 891.2 L 462.6 892.2 L 470.3 893.0 L 478.1 893.9 L 485.8 894.7 L 493.5 895.4 L 501.1 896.2 L 508.7 896.8 L 516.3 897.4 L 523.8 898.0 L 531.2 898.5 L 538.5 899.0 L 545.8 899.4 L 552.9 899.7 L 560.0 900.0 L 567.0 900.2 L 574.0 900.3 L 581.0 900.3 L 588.0 900.2 L 595.0 900.1 L 602.0 899.9 L 609.0 899.6 L 616.0 899.2 L 623.0 898.8 L 630.0 898.3 L 637.0 897.7 L 644.0 897.2 L 651.0 896.5 L 658.0 895.8 L 665.0 895.1 L 672.0 894.4 L 679.0 893.6 L 686.0 892.9 L 693.0 892.1 L 700.0 891.2 L 707.0 890.4 L 714.0 889.6 L 721.0 888.8 L 728.0 888.0 L 735.0 887.2 L 742.0 886.4 L 749.0 885.7 L 756.0 885.0 L 763.0 884.3 L 770.0 883.6 L 777.0 883.0 L 784.0 882.4 L 791.0 881.9 L 798.0 881.4 L 805.0 881.0 L 812.0 880.6 L 819.0 880.4 L 826.0 880.2 L 833.0 880.0 L 840.0 880.0 L 847.0 880.0 L 854.1 880.2 L 861.2 880.4 L 868.3 880.7 L 875.4 881.1 L 882.6 881.6 L 889.8 882.1 L 897.0 882.7 L 904.2 883.4 L 911.4 884.1 L 918.6 884.8 L 925.9 885.6 L 933.1 886.4 L 940.4 887.2 L 947.6 888.1 L 954.9 889.0 L 962.1 889.8 L 969.3 890.7 L 976.6 891.6 L 983.8 892.5 L 990.9 893.4 L 998.1 894.2 L 1005.2 895.0 L 1012.3 895.8 L 1019.4 896.6 L 1026.4 897.3 L 1033.4 898.0 L 1040.4 898.6 L 1047.3 899.2 L 1054.2 899.7 L 1061.1 900.1 L 1067.8 900.5 L 1074.6 900.8 L 1081.3 901.0 L 1087.9 901.1 L 1094.4 901.1 L 1100.9 901.0 L 1107.4 900.8 L 1113.7 900.4 L 1120.0 900.0 L 1126.2 899.5 L 1132.4 898.9 L 1138.6 898.3 L 1144.8 897.7 L 1150.9 897.0 L 1157.0 896.3 L 1163.1 895.5 L 1169.1 894.7 L 1175.1 893.9 L 1181.1 893.0 L 1187.0 892.0 L 1192.9 891.0 L 1198.8 890.0 L 1204.6 888.9 L 1210.4 887.8 L 1216.2 886.6 L 1221.9 885.3 L 1227.5 884.0 L 1233.2 882.7 L 1238.8 881.2 L 1244.3 879.8 L 1249.8 878.3 L 1255.2 876.7 L 1260.6 875.0 L 1266.0 873.3 L 1271.3 871.6 L 1276.6 869.8 L 1281.8 867.9 L 1286.9 865.9 L 1292.0 863.9 L 1297.1 861.8 L 1302.1 859.7 L 1307.0 857.5 L 1311.9 855.2 L 1316.7 852.8 L 1321.5 850.4 L 1326.2 847.9 L 1330.9 845.4 L 1335.5 842.7 L 1340.0 840.0 L 1344.5 837.2 L 1349.0 834.4 L 1353.5 831.4 L 1358.0 828.4 L 1362.4 825.3 L 1366.9 822.2 L 1371.3 819.0 L 1375.7 815.7 L 1380.0 812.3 L 1384.4 808.9 L 1388.7 805.4 L 1392.9 801.9 L 1397.1 798.3 L 1401.3 794.6 L 1405.4 790.8 L 1409.4 787.0 L 1413.4 783.2 L 1417.4 779.3 L 1421.2 775.3 L 1425.0 771.2 L 1428.7 767.2 L 1432.3 763.0 L 1435.9 758.8 L 1439.4 754.6 L 1442.7 750.3 L 1446.0 745.9 L 1449.2 741.5 L 1452.3 737.0 L 1455.3 732.5 L 1458.1 728.0 L 1460.9 723.4 L 1463.5 718.7 L 1466.0 714.0 L 1468.4 709.3 L 1470.7 704.5 L 1472.8 699.7 L 1474.8 694.8 L 1476.7 689.9 L 1478.4 685.0 L 1480.0 680.0 L 1481.4 674.9 L 1482.8 669.7 L 1483.9 664.4 L 1485.0 659.0 L 1486.0 653.4 L 1486.8 647.8 L 1487.5 642.0 L 1488.2 636.2 L 1488.7 630.2 L 1489.1 624.2 L 1489.4 618.1 L 1489.5 612.0 L 1489.6 605.8 L 1489.6 599.5 L 1489.5 593.2 L 1489.3 586.9 L 1489.0 580.5 L 1488.6 574.1 L 1488.1 567.7 L 1487.5 561.2 L 1486.8 554.8 L 1486.1 548.4 L 1485.2 541.9 L 1484.3 535.5 L 1483.3 529.1 L 1482.2 522.7 L 1481.1 516.4 L 1479.9 510.1 L 1478.6 503.9 L 1477.2 497.7 L 1475.7 491.5 L 1474.2 485.4 L 1472.7 479.4 L 1471.0 473.5 L 1469.3 467.7 L 1467.6 461.9 L 1465.8 456.3 L 1463.9 450.7 L 1462.0 445.3 L 1460.0 440.0 L 1458.0 434.8 L 1455.8 429.5 L 1453.6 424.3 L 1451.2 419.0 L 1448.8 413.8 L 1446.3 408.6 L 1443.7 403.4 L 1441.0 398.2 L 1438.2 393.1 L 1435.3 388.0 L 1432.4 382.9 L 1429.3 377.8 L 1426.2 372.8 L 1423.1 367.8 L 1419.8 362.8 L 1416.5 357.9 L 1413.1 353.1 L 1409.6 348.2 L 1406.1 343.5 L 1402.5 338.8 L 1398.8 334.1 L 1395.1 329.5 L 1391.4 325.0 L 1387.5 320.5 L 1383.6 316.1 L 1379.7 311.7 L 1375.7 307.5 L 1371.7 303.3 L 1367.6 299.2 L 1363.4 295.2 L 1359.3 291.2 L 1355.0 287.4 L 1350.8 283.6 L 1346.5 279.9 L 1342.1 276.3 L 1337.8 272.9 L 1333.4 269.5 L 1328.9 266.2 L 1324.5 263.1 L 1320.0 260.0 L 1315.5 257.0 L 1310.8 254.2 L 1306.1 251.4 L 1301.3 248.7 L 1296.5 246.1 L 1291.5 243.5 L 1286.5 241.1 L 1281.4 238.7 L 1276.3 236.4 L 1271.1 234.2 L 1265.8 232.1 L 1260.5 230.0 L 1255.1 228.1 L 1249.7 226.1 L 1244.2 224.3 L 1238.7 222.6 L 1233.2 220.9 L 1227.6 219.3 L 1221.9 217.7 L 1216.2 216.2 L 1210.5 214.8 L 1204.8 213.5 L 1199.1 212.2 L 1193.3 211.0 L 1187.5 209.9 L 1181.7 208.8 L 1175.8 207.8 L 1170.0 206.9 L 1164.1 206.0 L 1158.3 205.2 L 1152.4 204.4 L 1146.6 203.7 L 1140.7 203.0 L 1134.8 202.4 L 1129.0 201.9 L 1123.2 201.4 L 1117.3 201.0 L 1111.5 200.6 L 1105.8 200.3 L 1100.0 200.0 L 1094.2 199.8 L 1088.3 199.6 L 1082.4 199.6 L 1076.4 199.6 L 1070.3 199.7 L 1064.1 199.8 L 1057.9 200.0 L 1051.7 200.3 L 1045.4 200.7 L 1039.1 201.1 L 1032.7 201.6 L 1026.3 202.1 L 1019.9 202.7 L 1013.5 203.4 L 1007.1 204.2 L 1000.6 205.0 L 994.2 205.8 L 987.8 206.7 L 981.4 207.7 L 975.0 208.8 L 968.6 209.8 L 962.3 211.0 L 956.0 212.2 L 949.8 213.4 L 943.6 214.7 L 937.4 216.1 L 931.3 217.5 L 925.3 219.0 L 919.3 220.5 L 913.4 222.0 L 907.6 223.6 L 901.9 225.3 L 896.3 227.0 L 890.8 228.7 L 885.4 230.5 L 880.0 232.3 L 874.8 234.2 L 869.8 236.1 L 864.8 238.0 L 860.0 240.0 L 855.3 242.1 L 850.7 244.3 L 846.3 246.6 L 841.9 249.0 L 837.7 251.6 L 833.6 254.2 L 829.5 257.0 L 825.6 259.8 L 821.7 262.8 L 818.0 265.8 L 814.3 268.9 L 810.6 272.0 L 807.1 275.2 L 803.6 278.5 L 800.2 281.8 L 796.8 285.1 L 793.5 288.5 L 790.2 291.9 L 787.0 295.3 L 783.8 298.8 L 780.6 302.2 L 777.4 305.6 L 774.3 309.1 L 771.2 312.5 L 768.1 315.9 L 765.0 319.3 L 761.9 322.6 L 758.9 325.9 L 755.8 329.1 L 752.7 332.3 L 749.5 335.5 L 746.4 338.6 L 743.2 341.6 L 740.0 344.5 L 736.8 347.3 L 733.6 350.1 L 730.2 352.7 L 726.9 355.3 L 723.5 357.7 L 720.0 360.0 L 716.5 362.3 L 713.0 364.5 L 709.6 366.8 L 706.1 369.0 L 702.6 371.3 L 699.2 373.5 L 695.8 375.7 L 692.3 377.9 L 688.9 380.1 L 685.5 382.3 L 682.0 384.4 L 678.6 386.5 L 675.2 388.6 L 671.8 390.6 L 668.4 392.6 L 665.0 394.6 L 661.5 396.5 L 658.1 398.3 L 654.7 400.1 L 651.2 401.9 L 647.8 403.6 L 644.4 405.2 L 640.9 406.7 L 637.4 408.2 L 634.0 409.7 L 630.5 411.0 L 627.0 412.3 L 623.5 413.4 L 619.9 414.5 L 616.4 415.5 L 612.9 416.5 L 609.3 417.3 L 605.7 418.0 L 602.1 418.6 L 598.5 419.1 L 594.8 419.5 L 591.1 419.8 L 587.5 420.0 L 583.7 420.1 L 580.0 420.0 L 576.2 419.8 L 572.4 419.5 L 568.5 419.1 L 564.6 418.5 L 560.7 417.9 L 556.7 417.1 L 552.7 416.3 L 548.6 415.3 L 544.6 414.2 L 540.5 413.0 L 536.3 411.8 L 532.2 410.4 L 528.1 409.0 L 523.9 407.5 L 519.7 405.9 L 515.5 404.2 L 511.3 402.5 L 507.1 400.7 L 502.9 398.8 L 498.8 396.9 L 494.6 394.9 L 490.4 392.8 L 486.2 390.7 L 482.1 388.6 L 477.9 386.4 L 473.8 384.1 L 469.8 381.8 L 465.7 379.5 L 461.7 377.2 L 457.7 374.8 L 453.7 372.4 L 449.8 369.9 L 445.9 367.5 L 442.0 365.0 L 438.2 362.5 L 434.5 360.0 L 430.8 357.5 L 427.1 355.0 L 423.5 352.5 L 420.0 350.0 L 416.5 347.4 L 413.1 344.7 L 409.7 341.7 L 406.4 338.7 L 403.1 335.5 L 399.8 332.1 L 396.6 328.7 L 393.4 325.1 L 390.3 321.5 L 387.2 317.7 L 384.1 313.9 L 381.1 310.1 L 378.0 306.1 L 375.0 302.2 L 372.1 298.2 L 369.1 294.2 L 366.2 290.1 L 363.3 286.1 L 360.4 282.1 L 357.5 278.1 L 354.6 274.2 L 351.8 270.3 L 348.9 266.4 L 346.1 262.6 L 343.2 258.9 L 340.4 255.3 L 337.6 251.8 L 334.7 248.4 L 331.9 245.1 L 329.1 242.0 L 326.2 238.9 L 323.4 236.1 L 320.5 233.4 L 317.6 230.9 L 314.7 228.5 L 311.8 226.4 L 308.9 224.5 L 306.0 222.7 L 303.0 221.2 L 300.0 220.0 L 297.0 218.9 L 293.9 218.0 L 290.8 217.2 L 287.6 216.5 L 284.5 215.9 L 281.2 215.4 L 278.0 215.1 L 274.7 214.9 L 271.4 214.8 L 268.1 214.8 L 264.8 214.9 L 261.5 215.1 L 258.1 215.4 L 254.8 215.9 L 251.5 216.4 L 248.2 217.0 L 244.8 217.8 L 241.5 218.6 L 238.3 219.6 L 235.0 220.6 L 231.8 221.8 L 228.6 223.0 L 225.4 224.3 L 222.2 225.8 L 219.1 227.3 L 216.1 228.9 L 213.1 230.6 L 210.1 232.4 L 207.2 234.2 L 204.4 236.2 L 201.6 238.2 L 198.9 240.3 L 196.2 242.5 L 193.7 244.8 L 191.2 247.1 L 188.8 249.6 L 186.4 252.1 L 184.2 254.6 L 182.0 257.3 L 180.0 260.0 L 178.0 262.8 L 176.1 265.8 L 174.3 269.0 L 172.5 272.2 L 170.8 275.7 L 169.1 279.2 L 167.5 282.9 L 165.9 286.7 L 164.4 290.6 L 163.0 294.7 L 161.6 298.8 L 160.2 303.1 L 158.9 307.4 L 157.7 311.9 L 156.5 316.4 L 155.4 321.0 L 154.3 325.6 L 153.2 330.4 L 152.2 335.2 L 151.2 340.0 L 150.3 344.9 L 149.5 349.8 L 148.6 354.8 L 147.8 359.8 L 147.1 364.9 L 146.4 369.9 L 145.7 375.0 L 145.1 380.1 L 144.5 385.2 L 143.9 390.3 L 143.4 395.4 L 142.9 400.5 L 142.4 405.5 L 142.0 410.6 L 141.6 415.6 L 141.2 420.6 L 140.9 425.5 L 140.6 430.4 L 140.3 435.2 L 140.0 440.0 L 139.8 444.8 L 139.6 449.6 L 139.6 454.5 L 139.6 459.4 L 139.6 464.3 L 139.7 469.3 L 139.9 474.3 L 140.2 479.4 L 140.4 484.4 L 140.8 489.5 L 141.2 494.7 L 141.6 499.8 L 142.1 504.9 L 142.6 510.1 L 143.1 515.3 L 143.7 520.5 L 144.3 525.7 L 144.9 530.9 L 145.6 536.1 L 146.2 541.2 L 146.9 546.4 L 147.7 551.6 L 148.4 556.8 L 149.1 561.9 L 149.9 567.1 L 150.6 572.2 L 151.4 577.2 L 152.1 582.3 L 152.9 587.3 L 153.6 592.3 L 154.3 597.3 L 155.0 602.2 L 155.7 607.1 L 156.4 612.0 L 157.1 616.8 L 157.7 621.5 L 158.3 626.2 L 158.9 630.9 L 159.5 635.5 L 160.0 640.0 L 160.5 644.5 L 160.9 649.0 L 161.3 653.5 L 161.6 658.1 L 162.0 662.6 L 162.2 667.1 L 162.5 671.6 L 162.7 676.2 L 162.9 680.7 L 163.1 685.2 L 163.3 689.6 L 163.5 694.1 L 163.6 698.5 L 163.8 702.9 L 164.0 707.3 L 164.2 711.7 L 164.3 716.0 L 164.5 720.3 L 164.8 724.5 L 165.0 728.8 L 165.3 732.9 L 165.6 737.0 L 165.9 741.1 L 166.2 745.1 L 166.6 749.1 L 167.1 753.0 L 167.6 756.8 L 168.1 760.6 L 168.7 764.3 L 169.4 768.0 L 170.1 771.5 L 170.9 775.0 L 171.7 778.5 L 172.7 781.8 L 173.7 785.1 L 174.8 788.2 L 175.9 791.3 L 177.2 794.3 L 178.5 797.2 L 180.0 800.0 L 181.5 802.7 L 183.0 805.3 L 184.5 807.8 L 185.9 810.1 L 187.4 812.4 L 188.9 814.6 L 190.5 816.7 L 192.0 818.7 L 193.6 820.6 L 195.2 822.5 L 196.8 824.3 L 198.5 826.0 L 200.2 827.6 L 201.9 829.2 L 203.7 830.7 L 205.6 832.2 L 207.5 833.6 L 209.5 834.9 L 211.6 836.2 L 213.8 837.5 L 216.0 838.7 L 218.3 839.9 L 220.7 841.1 L 223.2 842.2 L 225.8 843.4 L 228.5 844.5 L 231.3 845.5 L 234.2 846.6 L 237.3 847.7 L 240.5 848.8 L 243.8 849.8 L 247.2 850.9 L 250.8 852.0 L 254.5 853.0 L 258.3 854.1 L 262.4 855.3 L 266.5 856.4 L 270.8 857.6 L 275.3 858.8 Z" fill="none" stroke="#3E92C6" stroke-width="100.0" stroke-linejoin="round"/>
<circle cx="1109.5" cy="953.7" r="4" fill="rgb(230, 57, 70)" stroke="#0E141C" stroke-width="1.5"/>
<circle cx="1105.2" cy="847.8" r="4" fill="rgb(230, 57, 70)" stroke="#0E141C" stroke-width="1.5"/>
<circle cx="1356.9" cy="891.5" r="4" fill="rgb(230, 57, 70)" stroke="#0E141C" stroke-width="1.5"/>
<circle cx="1304.9" cy="799.2" r="4" fill="rgb(230, 57, 70)" stroke="#0E141C" stroke-width="1.5"/>
<circle cx="1472.5" cy="797.6" r="4" fill="rgb(230, 57, 70)" stroke="#0E141C" stroke-width="1.5"/>
<circle cx="1392.2" cy="728.4" r="4" fill="rgb(230, 57, 70)" stroke="#0E141C" stroke-width="1.5"/>
<circle cx="1496.2" cy="766.7" r="4" fill="rgb(250, 250, 245)" stroke="#0E141C" stroke-width="1.5"/>
<circle cx="1408.4" cy="707.4" r="4" fill="rgb(250, 250, 245)" stroke="#0E141C" stroke-width="1.5"/>
<circle cx="1516.0" cy="732.6" r="4" fill="rgb(230, 57, 70)" stroke="#0E141C" stroke-width="1.5"/>
<circle cx="1420.8" cy="686.0" r="4" fill="rgb(230, 57, 70)" stroke="#0E141C" stroke-width="1.5"/>
<circle cx="1530.8" cy="695.2" r="4" fill="rgb(250, 250, 245)" stroke="#0E141C" stroke-width="1.5"/>
<circle cx="1429.2" cy="664.8" r="4" fill="rgb(250, 250, 245)" stroke="#0E141C" stroke-width="1.5"/>
<circle cx="1539.3" cy="655.0" r="4" fill="rgb(230, 57, 70)" stroke="#0E141C" stroke-width="1.5"/>
<circle cx="1434.3" cy="640.5" r="4" fill="rgb(230, 57, 70)" stroke="#0E141C" stroke-width="1.5"/>
<circle cx="1375.5" cy="235.2" r="4" fill="rgb(230, 57, 70)" stroke="#0E141C" stroke-width="1.5"/>
<circle cx="1308.8" cy="317.5" r="4" fill="rgb(230, 57, 70)" stroke="#0E141C" stroke-width="1.5"/>
<circle cx="1343.9" cy="212.3" r="4" fill="rgb(250, 250, 245)" stroke="#0E141C" stroke-width="1.5"/>
<circle cx="1287.0" cy="301.8" r="4" fill="rgb(250, 250, 245)" stroke="#0E141C" stroke-width="1.5"/>
<circle cx="1309.4" cy="193.3" r="4" fill="rgb(230, 57, 70)" stroke="#0E141C" stroke-width="1.5"/>
<circle cx="1263.7" cy="288.9" r="4" fill="rgb(230, 57, 70)" stroke="#0E141C" stroke-width="1.5"/>
<circle cx="845.1" cy="188.8" r="4" fill="rgb(230, 57, 70)" stroke="#0E141C" stroke-width="1.5"/>
<circle cx="884.6" cy="287.2" r="4" fill="rgb(230, 57, 70)" stroke="#0E141C" stroke-width="1.5"/>
<circle cx="809.7" cy="206.6" r="4" fill="rgb(250, 250, 245)" stroke="#0E141C" stroke-width="1.5"/>
<circle cx="865.7" cy="296.6" r="4" fill="rgb(250, 250, 245)" stroke="#0E141C" stroke-width="1.5"/>
<circle cx="779.9" cy="228.5" r="4" fill="rgb(230, 57, 70)" stroke="#0E141C" stroke-width="1.5"/>
<circle cx="848.6" cy="309.2" r="4" fill="rgb(230, 57, 70)" stroke="#0E141C" stroke-width="1.5"/>
<circle cx="707.1" cy="302.8" r="4" fill="rgb(230, 57, 70)" stroke="#0E141C" stroke-width="1.5"/>
<circle cx="779.4" cy="380.3" r="4" fill="rgb(230, 57, 70)" stroke="#0E141C" stroke-width="1.5"/>
<circle cx="693.4" cy="314.0" r="4" fill="rgb(250, 250, 245)" stroke="#0E141C" stroke-width="1.5"/>
<circle cx="753.5" cy="401.3" r="4" fill="rgb(250, 250, 245)" stroke="#0E141C" stroke-width="1.5"/>
<circle cx="619.5" cy="358.3" r="4" fill="rgb(230, 57, 70)" stroke="#0E141C" stroke-width="1.5"/>
<circle cx="662.3" cy="455.2" r="4" fill="rgb(230, 57, 70)" stroke="#0E141C" stroke-width="1.5"/>
<circle cx="604.8" cy="363.7" r="4" fill="rgb(250, 250, 245)" stroke="#0E141C" stroke-width="1.5"/>
<circle cx="635.1" cy="465.3" r="4" fill="rgb(250, 250, 245)" stroke="#0E141C" stroke-width="1.5"/>
<circle cx="591.8" cy="366.5" r="4" fill="rgb(230, 57, 70)" stroke="#0E141C" stroke-width="1.5"/>
<circle cx="605.1" cy="471.7" r="4" fill="rgb(230, 57, 70)" stroke="#0E141C" stroke-width="1.5"/>
<circle cx="579.7" cy="366.9" r="4" fill="rgb(250, 250, 245)" stroke="#0E141C" stroke-width="1.5"/>
<circle cx="572.8" cy="472.7" r="4" fill="rgb(250, 250, 245)" stroke="#0E141C" stroke-width="1.5"/>
<circle cx="564.5" cy="364.6" r="4" fill="rgb(230, 57, 70)" stroke="#0E141C" stroke-width="1.5"/>
<circle cx="540.9" cy="467.9" r="4" fill="rgb(230, 57, 70)" stroke="#0E141C" stroke-width="1.5"/>
<circle cx="451.2" cy="307.1" r="4" fill="rgb(230, 57, 70)" stroke="#0E141C" stroke-width="1.5"/>
<circle cx="388.8" cy="392.9" r="4" fill="rgb(230, 57, 70)" stroke="#0E141C" stroke-width="1.5"/>
<circle cx="438.2" cy="295.6" r="4" fill="rgb(250, 250, 245)" stroke="#0E141C" stroke-width="1.5"/>
<circle cx="361.5" cy="368.7" r="4" fill="rgb(250, 250, 245)" stroke="#0E141C" stroke-width="1.5"/>
<circle cx="375.2" cy="214.1" r="4" fill="rgb(230, 57, 70)" stroke="#0E141C" stroke-width="1.5"/>
<circle cx="294.3" cy="282.7" r="4" fill="rgb(230, 57, 70)" stroke="#0E141C" stroke-width="1.5"/>
<circle cx="351.8" cy="190.3" r="4" fill="rgb(250, 250, 245)" stroke="#0E141C" stroke-width="1.5"/>
<circle cx="283.5" cy="271.4" r="4" fill="rgb(250, 250, 245)" stroke="#0E141C" stroke-width="1.5"/>
<circle cx="319.0" cy="170.5" r="4" fill="rgb(230, 57, 70)" stroke="#0E141C" stroke-width="1.5"/>
<circle cx="281.0" cy="269.5" r="4" fill="rgb(230, 57, 70)" stroke="#0E141C" stroke-width="1.5"/>
<circle cx="287.8" cy="162.9" r="4" fill="rgb(250, 250, 245)" stroke="#0E141C" stroke-width="1.5"/>
<circle cx="274.7" cy="268.0" r="4" fill="rgb(250, 250, 245)" stroke="#0E141C" stroke-width="1.5"/>
<circle cx="257.1" cy="162.3" r="4" fill="rgb(230, 57, 70)" stroke="#0E141C" stroke-width="1.5"/>
<circle cx="265.8" cy="267.9" r="4" fill="rgb(230, 57, 70)" stroke="#0E141C" stroke-width="1.5"/>
<circle cx="227.6" cy="167.5" r="4" fill="rgb(250, 250, 245)" stroke="#0E141C" stroke-width="1.5"/>
<circle cx="255.5" cy="269.8" r="4" fill="rgb(250, 250, 245)" stroke="#0E141C" stroke-width="1.5"/>
<circle cx="199.6" cy="177.8" r="4" fill="rgb(230, 57, 70)" stroke="#0E141C" stroke-width="1.5"/>
<circle cx="244.8" cy="273.7" r="4" fill="rgb(230, 57, 70)" stroke="#0E141C" stroke-width="1.5"/>
<circle cx="173.7" cy="192.9" r="4" fill="rgb(250, 250, 245)" stroke="#0E141C" stroke-width="1.5"/>
<circle cx="235.0" cy="279.4" r="4" fill="rgb(250, 250, 245)" stroke="#0E141C" stroke-width="1.5"/>
<circle cx="150.6" cy="212.8" r="4" fill="rgb(230, 57, 70)" stroke="#0E141C" stroke-width="1.5"/>
<circle cx="227.0" cy="286.3" r="4" fill="rgb(230, 57, 70)" stroke="#0E141C" stroke-width="1.5"/>
<circle cx="130.9" cy="238.1" r="4" fill="rgb(250, 250, 245)" stroke="#0E141C" stroke-width="1.5"/>
<circle cx="221.3" cy="293.5" r="4" fill="rgb(250, 250, 245)" stroke="#0E141C" stroke-width="1.5"/>
<circle cx="116.6" cy="267.2" r="4" fill="rgb(230, 57, 70)" stroke="#0E141C" stroke-width="1.5"/>
<circle cx="215.2" cy="306.2" r="4" fill="rgb(230, 57, 70)" stroke="#0E141C" stroke-width="1.5"/>
<circle cx="116.5" cy="773.2" r="4" fill="rgb(230, 57, 70)" stroke="#0E141C" stroke-width="1.5"/>
<circle cx="221.0" cy="755.4" r="4" fill="rgb(230, 57, 70)" stroke="#0E141C" stroke-width="1.5"/>
<circle cx="123.3" cy="801.5" r="4" fill="rgb(250, 250, 245)" stroke="#0E141C" stroke-width="1.5"/>
<circle cx="224.1" cy="768.6" r="4" fill="rgb(250, 250, 245)" stroke="#0E141C" stroke-width="1.5"/>
<circle cx="135.3" cy="828.8" r="4" fill="rgb(230, 57, 70)" stroke="#0E141C" stroke-width="1.5"/>
<circle cx="227.6" cy="776.6" r="4" fill="rgb(230, 57, 70)" stroke="#0E141C" stroke-width="1.5"/>
<circle cx="139.2" cy="835.4" r="4" fill="rgb(230, 57, 70)" stroke="#0E141C" stroke-width="1.5"/>
<circle cx="229.7" cy="780.1" r="4" fill="rgb(230, 57, 70)" stroke="#0E141C" stroke-width="1.5"/>
<circle cx="152.9" cy="854.6" r="4" fill="rgb(250, 250, 245)" stroke="#0E141C" stroke-width="1.5"/>
<circle cx="234.2" cy="786.7" r="4" fill="rgb(250, 250, 245)" stroke="#0E141C" stroke-width="1.5"/>
<circle cx="170.5" cy="872.0" r="4" fill="rgb(230, 57, 70)" stroke="#0E141C" stroke-width="1.5"/>
<circle cx="237.0" cy="789.5" r="4" fill="rgb(230, 57, 70)" stroke="#0E141C" stroke-width="1.5"/>
<circle cx="191.0" cy="885.5" r="4" fill="rgb(250, 250, 245)" stroke="#0E141C" stroke-width="1.5"/>
<circle cx="241.0" cy="792.0" r="4" fill="rgb(250, 250, 245)" stroke="#0E141C" stroke-width="1.5"/>
<path d="M 280.0 860.0 L 284.9 861.3 L 289.9 862.5 L 295.2 863.8 L 300.7 865.1 L 306.4 866.4 L 312.2 867.7 L 318.3 868.9 L 324.5 870.2 L 330.8 871.5 L 337.3 872.8 L 344.0 874.1 L 350.8 875.4 L 357.7 876.6 L 364.7 877.9 L 371.8 879.1 L 379.0 880.3 L 386.4 881.5 L 393.7 882.7 L 401.2 883.9 L 408.8 885.0 L 416.3 886.1 L 424.0 887.2 L 431.7 888.3 L 439.4 889.3 L 447.1 890.3 L 454.8 891.2 L 462.6 892.2 L 470.3 893.0 L 478.1 893.9 L 485.8 894.7 L 493.5 895.4 L 501.1 896.2 L 508.7 896.8 L 516.3 897.4 L 523.8 898.0 L 531.2 898.5 L 538.5 899.0 L 545.8 899.4 L 552.9 899.7 L 560.0 900.0 L 567.0 900.2 L 574.0 900.3 L 581.0 900.3 L 588.0 900.2 L 595.0 900.1 L 602.0 899.9 L 609.0 899.6 L 616.0 899.2 L 623.0 898.8 L 630.0 898.3 L 637.0 897.7 L 644.0 897.2 L 651.0 896.5 L 658.0 895.8 L 665.0 895.1 L 672.0 894.4 L 679.0 893.6 L 686.0 892.9 L 693.0 892.1 L 700.0 891.2 L 707.0 890.4 L 714.0 889.6 L 721.0 888.8 L 728.0 888.0 L 735.0 887.2 L 742.0 886.4 L 749.0 885.7 L 756.0 885.0 L 763.0 884.3 L 770.0 883.6 L 777.0 883.0 L 784.0 882.4 L 791.0 881.9 L 798.0 881.4 L 805.0 881.0 L 812.0 880.6 L 819.0 880.4 L 826.0 880.2 L 833.0 880.0 L 840.0 880.0 L 847.0 880.0 L 854.1 880.2 L 861.2 880.4 L 868.3 880.7 L 875.4 881.1 L 882.6 881.6 L 889.8 882.1 L 897.0 882.7 L 904.2 883.4 L 911.4 884.1 L 918.6 884.8 L 925.9 885.6 L 933.1 886.4 L 940.4 887.2 L 947.6 888.1 L 954.9 889.0 L 962.1 889.8 L 969.3 890.7 L 976.6 891.6 L 983.8 892.5 L 990.9 893.4 L 998.1 894.2 L 1005.2 895.0 L 1012.3 895.8 L 1019.4 896.6 L 1026.4 897.3 L 1033.4 898.0 L 1040.4 898.6 L 1047.3 899.2 L 1054.2 899.7 L 1061.1 900.1 L 1067.8 900.5 L 1074.6 900.8 L 1081.3 901.0 L 1087.9 901.1 L 1094.4 901.1 L 1100.9 901.0 L 1107.4 900.8 L 1113.7 900.4 L 1120.0 900.0 L 1126.2 899.5 L 1132.4 898.9 L 1138.6 898.3 L 1144.8 897.7 L 1150.9 897.0 L 1157.0 896.3 L 1163.1 895.5 L 1169.1 894.7 L 1175.1 893.9 L 1181.1 893.0 L 1187.0 892.0 L 1192.9 891.0 L 1198.8 890.0 L 1204.6 888.9 L 1210.4 887.8 L 1216.2 886.6 L 1221.9 885.3 L 1227.5 884.0 L 1233.2 882.7 L 1238.8 881.2 L 1244.3 879.8 L 1249.8 878.3 L 1255.2 876.7 L 1260.6 875.0 L 1266.0 873.3 L 1271.3 871.6 L 1276.6 869.8 L 1281.8 867.9 L 1286.9 865.9 L 1292.0 863.9 L 1297.1 861.8 L 1302.1 859.7 L 1307.0 857.5 L 1311.9 855.2 L 1316.7 852.8 L 1321.5 850.4 L 1326.2 847.9 L 1330.9 845.4 L 1335.5 842.7 L 1340.0 840.0 L 1344.5 837.2 L 1349.0 834.4 L 1353.5 831.4 L 1358.0 828.4 L 1362.4 825.3 L 1366.9 822.2 L 1371.3 819.0 L 1375.7 815.7 L 1380.0 812.3 L 1384.4 808.9 L 1388.7 805.4 L 1392.9 801.9 L 1397.1 798.3 L 1401.3 794.6 L 1405.4 790.8 L 1409.4 787.0 L 1413.4 783.2 L 1417.4 779.3 L 1421.2 775.3 L 1425.0 771.2 L 1428.7 767.2 L 1432.3 763.0 L 1435.9 758.8 L 1439.4 754.6 L 1442.7 750.3 L 1446.0 745.9 L 1449.2 741.5 L 1452.3 737.0 L 1455.3 732.5 L 1458.1 728.0 L 1460.9 723.4 L 1463.5 718.7 L 1466.0 714.0 L 1468.4 709.3 L 1470.7 704.5 L 1472.8 699.7 L 1474.8 694.8 L 1476.7 689.9 L 1478.4 685.0 L 1480.0 680.0 L 1481.4 674.9 L 1482.8 669.7 L 1483.9 664.4 L 1485.0 659.0 L 1486.0 653.4 L 1486.8 647.8 L 1487.5 642.0 L 1488.2 636.2 L 1488.7 630.2 L 1489.1 624.2 L 1489.4 618.1 L 1489.5 612.0 L 1489.6 605.8 L 1489.6 599.5 L 1489.5 593.2 L 1489.3 586.9 L 1489.0 580.5 L 1488.6 574.1 L 1488.1 567.7 L 1487.5 561.2 L 1486.8 554.8 L 1486.1 548.4 L 1485.2 541.9 L 1484.3 535.5 L 1483.3 529.1 L 1482.2 522.7 L 1481.1 516.4 L 1479.9 510.1 L 1478.6 503.9 L 1477.2 497.7 L 1475.7 491.5 L 1474.2 485.4 L 1472.7 479.4 L 1471.0 473.5 L 1469.3 467.7 L 1467.6 461.9 L 1465.8 456.3 L 1463.9 450.7 L 1462.0 445.3 L 1460.0 440.0 L 1458.0 434.8 L 1455.8 429.5 L 1453.6 424.3 L 1451.2 419.0 L 1448.8 413.8 L 1446.3 408.6 L 1443.7 403.4 L 1441.0 398.2 L 1438.2 393.1 L 1435.3 388.0 L 1432.4 382.9 L 1429.3 377.8 L 1426.2 372.8 L 1423.1 367.8 L 1419.8 362.8 L 1416.5 357.9 L 1413.1 353.1 L 1409.6 348.2 L 1406.1 343.5 L 1402.5 338.8 L 1398.8 334.1 L 1395.1 329.5 L 1391.4 325.0 L 1387.5 320.5 L 1383.6 316.1 L 1379.7 311.7 L 1375.7 307.5 L 1371.7 303.3 L 1367.6 299.2 L 1363.4 295.2 L 1359.3 291.2 L 1355.0 287.4 L 1350.8 283.6 L 1346.5 279.9 L 1342.1 276.3 L 1337.8 272.9 L 1333.4 269.5 L 1328.9 266.2 L 1324.5 263.1 L 1320.0 260.0 L 1315.5 257.0 L 1310.8 254.2 L 1306.1 251.4 L 1301.3 248.7 L 1296.5 246.1 L 1291.5 243.5 L 1286.5 241.1 L 1281.4 238.7 L 1276.3 236.4 L 1271.1 234.2 L 1265.8 232.1 L 1260.5 230.0 L 1255.1 228.1 L 1249.7 226.1 L 1244.2 224.3 L 1238.7 222.6 L 1233.2 220.9 L 1227.6 219.3 L 1221.9 217.7 L 1216.2 216.2 L 1210.5 214.8 L 1204.8 213.5 L 1199.1 212.2 L 1193.3 211.0 L 1187.5 209.9 L 1181.7 208.8 L 1175.8 207.8 L 1170.0 206.9 L 1164.1 206.0 L 1158.3 205.2 L 1152.4 204.4 L 1146.6 203.7 L 1140.7 203.0 L 1134.8 202.4 L 1129.0 201.9 L 1123.2 201.4 L 1117.3 201.0 L 1111.5 200.6 L 1105.8 200.3 L 1100.0 200.0 L 1094.2 199.8 L 1088.3 199.6 L 1082.4 199.6 L 1076.4 199.6 L 1070.3 199.7 L 1064.1 199.8 L 1057.9 200.0 L 1051.7 200.3 L 1045.4 200.7 L 1039.1 201.1 L 1032.7 201.6 L 1026.3 202.1 L 1019.9 202.7 L 1013.5 203.4 L 1007.1 204.2 L 1000.6 205.0 L 994.2 205.8 L 987.8 206.7 L 981.4 207.7 L 975.0 208.8 L 968.6 209.8 L 962.3 211.0 L 956.0 212.2 L 949.8 213.4 L 943.6 214.7 L 937.4 216.1 L 931.3 217.5 L 925.3 219.0 L 919.3 220.5 L 913.4 222.0 L 907.6 223.6 L 901.9 225.3 L 896.3 227.0 L 890.8 228.7 L 885.4 230.5 L 880.0 232.3 L 874.8 234.2 L 869.8 236.1 L 864.8 238.0 L 860.0 240.0 L 855.3 242.1 L 850.7 244.3 L 846.3 246.6 L 841.9 249.0 L 837.7 251.6 L 833.6 254.2 L 829.5 257.0 L 825.6 259.8 L 821.7 262.8 L 818.0 265.8 L 814.3 268.9 L 810.6 272.0 L 807.1 275.2 L 803.6 278.5 L 800.2 281.8 L 796.8 285.1 L 793.5 288.5 L 790.2 291.9 L 787.0 295.3 L 783.8 298.8 L 780.6 302.2 L 777.4 305.6 L 774.3 309.1 L 771.2 312.5 L 768.1 315.9 L 765.0 319.3 L 761.9 322.6 L 758.9 325.9 L 755.8 329.1 L 752.7 332.3 L 749.5 335.5 L 746.4 338.6 L 743.2 341.6 L 740.0 344.5 L 736.8 347.3 L 733.6 350.1 L 730.2 352.7 L 726.9 355.3 L 723.5 357.7 L 720.0 360.0 L 716.5 362.3 L 713.0 364.5 L 709.6 366.8 L 706.1 369.0 L 702.6 371.3 L 699.2 373.5 L 695.8 375.7 L 692.3 377.9 L 688.9 380.1 L 685.5 382.3 L 682.0 384.4 L 678.6 386.5 L 675.2 388.6 L 671.8 390.6 L 668.4 392.6 L 665.0 394.6 L 661.5 396.5 L 658.1 398.3 L 654.7 400.1 L 651.2 401.9 L 647.8 403.6 L 644.4 405.2 L 640.9 406.7 L 637.4 408.2 L 634.0 409.7 L 630.5 411.0 L 627.0 412.3 L 623.5 413.4 L 619.9 414.5 L 616.4 415.5 L 612.9 416.5 L 609.3 417.3 L 605.7 418.0 L 602.1 418.6 L 598.5 419.1 L 594.8 419.5 L 591.1 419.8 L 587.5 420.0 L 583.7 420.1 L 580.0 420.0 L 576.2 419.8 L 572.4 419.5 L 568.5 419.1 L 564.6 418.5 L 560.7 417.9 L 556.7 417.1 L 552.7 416.3 L 548.6 415.3 L 544.6 414.2 L 540.5 413.0 L 536.3 411.8 L 532.2 410.4 L 528.1 409.0 L 523.9 407.5 L 519.7 405.9 L 515.5 404.2 L 511.3 402.5 L 507.1 400.7 L 502.9 398.8 L 498.8 396.9 L 494.6 394.9 L 490.4 392.8 L 486.2 390.7 L 482.1 388.6 L 477.9 386.4 L 473.8 384.1 L 469.8 381.8 L 465.7 379.5 L 461.7 377.2 L 457.7 374.8 L 453.7 372.4 L 449.8 369.9 L 445.9 367.5 L 442.0 365.0 L 438.2 362.5 L 434.5 360.0 L 430.8 357.5 L 427.1 355.0 L 423.5 352.5 L 420.0 350.0 L 416.5 347.4 L 413.1 344.7 L 409.7 341.7 L 406.4 338.7 L 403.1 335.5 L 399.8 332.1 L 396.6 328.7 L 393.4 325.1 L 390.3 321.5 L 387.2 317.7 L 384.1 313.9 L 381.1 310.1 L 378.0 306.1 L 375.0 302.2 L 372.1 298.2 L 369.1 294.2 L 366.2 290.1 L 363.3 286.1 L 360.4 282.1 L 357.5 278.1 L 354.6 274.2 L 351.8 270.3 L 348.9 266.4 L 346.1 262.6 L 343.2 258.9 L 340.4 255.3 L 337.6 251.8 L 334.7 248.4 L 331.9 245.1 L 329.1 242.0 L 326.2 238.9 L 323.4 236.1 L 320.5 233.4 L 317.6 230.9 L 314.7 228.5 L 311.8 226.4 L 308.9 224.5 L 306.0 222.7 L 303.0 221.2 L 300.0 220.0 L 297.0 218.9 L 293.9 218.0 L 290.8 217.2 L 287.6 216.5 L 284.5 215.9 L 281.2 215.4 L 278.0 215.1 L 274.7 214.9 L 271.4 214.8 L 268.1 214.8 L 264.8 214.9 L 261.5 215.1 L 258.1 215.4 L 254.8 215.9 L 251.5 216.4 L 248.2 217.0 L 244.8 217.8 L 241.5 218.6 L 238.3 219.6 L 235.0 220.6 L 231.8 221.8 L 228.6 223.0 L 225.4 224.3 L 222.2 225.8 L 219.1 227.3 L 216.1 228.9 L 213.1 230.6 L 210.1 232.4 L 207.2 234.2 L 204.4 236.2 L 201.6 238.2 L 198.9 240.3 L 196.2 242.5 L 193.7 244.8 L 191.2 247.1 L 188.8 249.6 L 186.4 252.1 L 184.2 254.6 L 182.0 257.3 L 180.0 260.0 L 178.0 262.8 L 176.1 265.8 L 174.3 269.0 L 172.5 272.2 L 170.8 275.7 L 169.1 279.2 L 167.5 282.9 L 165.9 286.7 L 164.4 290.6 L 163.0 294.7 L 161.6 298.8 L 160.2 303.1 L 158.9 307.4 L 157.7 311.9 L 156.5 316.4 L 155.4 321.0 L 154.3 325.6 L 153.2 330.4 L 152.2 335.2 L 151.2 340.0 L 150.3 344.9 L 149.5 349.8 L 148.6 354.8 L 147.8 359.8 L 147.1 364.9 L 146.4 369.9 L 145.7 375.0 L 145.1 380.1 L 144.5 385.2 L 143.9 390.3 L 143.4 395.4 L 142.9 400.5 L 142.4 405.5 L 142.0 410.6 L 141.6 415.6 L 141.2 420.6 L 140.9 425.5 L 140.6 430.4 L 140.3 435.2 L 140.0 440.0 L 139.8 444.8 L 139.6 449.6 L 139.6 454.5 L 139.6 459.4 L 139.6 464.3 L 139.7 469.3 L 139.9 474.3 L 140.2 479.4 L 140.4 484.4 L 140.8 489.5 L 141.2 494.7 L 141.6 499.8 L 142.1 504.9 L 142.6 510.1 L 143.1 515.3 L 143.7 520.5 L 144.3 525.7 L 144.9 530.9 L 145.6 536.1 L 146.2 541.2 L 146.9 546.4 L 147.7 551.6 L 148.4 556.8 L 149.1 561.9 L 149.9 567.1 L 150.6 572.2 L 151.4 577.2 L 152.1 582.3 L 152.9 587.3 L 153.6 592.3 L 154.3 597.3 L 155.0 602.2 L 155.7 607.1 L 156.4 612.0 L 157.1 616.8 L 157.7 621.5 L 158.3 626.2 L 158.9 630.9 L 159.5 635.5 L 160.0 640.0 L 160.5 644.5 L 160.9 649.0 L 161.3 653.5 L 161.6 658.1 L 162.0 662.6 L 162.2 667.1 L 162.5 671.6 L 162.7 676.2 L 162.9 680.7 L 163.1 685.2 L 163.3 689.6 L 163.5 694.1 L 163.6 698.5 L 163.8 702.9 L 164.0 707.3 L 164.2 711.7 L 164.3 716.0 L 164.5 720.3 L 164.8 724.5 L 165.0 728.8 L 165.3 732.9 L 165.6 737.0 L 165.9 741.1 L 166.2 745.1 L 166.6 749.1 L 167.1 753.0 L 167.6 756.8 L 168.1 760.6 L 168.7 764.3 L 169.4 768.0 L 170.1 771.5 L 170.9 775.0 L 171.7 778.5 L 172.7 781.8 L 173.7 785.1 L 174.8 788.2 L 175.9 791.3 L 177.2 794.3 L 178.5 797.2 L 180.0 800.0 L 181.5 802.7 L 183.0 805.3 L 184.5 807.8 L 185.9 810.1 L 187.4 812.4 L 188.9 814.6 L 190.5 816.7 L 192.0 818.7 L 193.6 820.6 L 195.2 822.5 L 196.8 824.3 L 198.5 826.0 L 200.2 827.6 L 201.9 829.2 L 203.7 830.7 L 205.6 832.2 L 207.5 833.6 L 209.5 834.9 L 211.6 836.2 L 213.8 837.5 L 216.0 838.7 L 218.3 839.9 L 220.7 841.1 L 223.2 842.2 L 225.8 843.4 L 228.5 844.5 L 231.3 845.5 L 234.2 846.6 L 237.3 847.7 L 240.5 848.8 L 243.8 849.8 L 247.2 850.9 L 250.8 852.0 L 254.5 853.0 L 258.3 854.1 L 262.4 855.3 L 266.5 856.4 L 270.8 857.6 L 275.3 858.8 Z" fill="none" stroke="#FFFFFF" stroke-opacity="0.75" stroke-width="2" stroke-dasharray="6 8"/>
<path d="M -10 -8 L 8 0 L -10 8 Z" fill="#FFD23F" stroke="#0E141C" stroke-width="2" transform="translate(574.0 900.3) rotate(0.5)"/>
<path d="M -10 -8 L 8 0 L -10 8 Z" fill="#FFD23F" stroke="#0E141C" stroke-width="2" transform="translate(1380.0 812.3) rotate(-37.9)"/>
<path d="M -10 -8 L 8 0 L -10 8 Z" fill="#FFD23F" stroke="#0E141C" stroke-width="2" transform="translate(1039.1 201.1) rotate(175.9)"/>
<path d="M -10 -8 L 8 0 L -10 8 Z" fill="#FFD23F" stroke="#0E141C" stroke-width="2" transform="translate(244.8 217.8) rotate(166.5)"/>
<line x1="472.7642346636219" y1="943.6028624178449" x2="483.366702836378" y2="844.1665125821551" stroke="#FFFFFF" stroke-width="10"/>
<line x1="472.7642346636219" y1="943.6028624178449" x2="483.366702836378" y2="844.1665125821551" stroke="#0E141C" stroke-width="10" stroke-dasharray="5 5"/>
<line x1="1021.7849843953859" y1="152.33608838958412" x2="1030.8550156046142" y2="251.92391161041584" stroke="#FF2BD6" stroke-width="5" stroke-dasharray="8 5"/>
<text x="1013.7849843953859" y="142.33608838958412" text-anchor="end" font-size="11" fill="#FF2BD6">CHECKPOINT</text>
<rect x="436.0" y="869.1999999999999" width="25.6" height="14.4" rx="4.5" fill="#E63946" stroke="#0E141C" stroke-width="2"/>
<rect x="401.59999999999997" y="892.8" width="25.6" height="14.4" rx="4.5" fill="#3A86FF" stroke="#0E141C" stroke-width="2"/>
<rect x="375.8" y="860.5999999999999" width="25.6" height="14.4" rx="4.5" fill="#FFD23F" stroke="#0E141C" stroke-width="2"/>
<rect x="342.40000000000003" y="883.2" width="25.6" height="14.4" rx="4.5" fill="#2EC46B" stroke="#0E141C" stroke-width="2"/>
<circle cx="840" cy="620" r="14" fill="#E8B04A" stroke="#8A5A2A" stroke-width="3"/>
<circle cx="1370.0" cy="550.0" r="14" fill="#E8B04A" stroke="#8A5A2A" stroke-width="3"/>
<circle cx="680" cy="600" r="16" fill="#2E8B3A" stroke="#1C5A24" stroke-width="3"/>
<circle cx="1000" cy="640" r="16" fill="#2E8B3A" stroke="#1C5A24" stroke-width="3"/>
<circle cx="1600" cy="60" r="16" fill="#2E8B3A" stroke="#1C5A24" stroke-width="3"/>
<circle cx="60" cy="1020" r="16" fill="#2E8B3A" stroke="#1C5A24" stroke-width="3"/>
<circle cx="1640" cy="520" r="16" fill="#2E8B3A" stroke="#1C5A24" stroke-width="3"/>
<circle cx="660" cy="180" r="10" fill="#6E9E3A" stroke="#3F6420" stroke-width="3"/>
<circle cx="480" cy="190.0" r="10" fill="#6E9E3A" stroke="#3F6420" stroke-width="3"/>
<circle cx="760" cy="40" r="10" fill="#6E9E3A" stroke="#3F6420" stroke-width="3"/>
<circle cx="540" cy="36.0" r="10" fill="#6E9E3A" stroke="#3F6420" stroke-width="3"/>
<circle cx="360" cy="50.0" r="10" fill="#6E9E3A" stroke="#3F6420" stroke-width="3"/>
<circle cx="1200" cy="520" r="10" fill="#6E9E3A" stroke="#3F6420" stroke-width="3"/>
<circle cx="1200" cy="380" r="10" fill="#6E9E3A" stroke="#3F6420" stroke-width="3"/>
<circle cx="60" cy="600" r="10" fill="#6E9E3A" stroke="#3F6420" stroke-width="3"/>
<circle cx="920" cy="1030.0" r="10" fill="#6E9E3A" stroke="#3F6420" stroke-width="3"/>
<circle cx="1600" cy="800" r="10" fill="#6E9E3A" stroke="#3F6420" stroke-width="3"/>
<circle cx="600" cy="176.0" r="8" fill="#58A848" stroke="#2F6E2A" stroke-width="3"/>
<circle cx="440" cy="60" r="8" fill="#58A848" stroke="#2F6E2A" stroke-width="3"/>
<circle cx="1560" cy="920" r="8" fill="#58A848" stroke="#2F6E2A" stroke-width="3"/>
<circle cx="1120" cy="1020" r="8" fill="#58A848" stroke="#2F6E2A" stroke-width="3"/>
<circle cx="80" cy="360" r="8" fill="#58A848" stroke="#2F6E2A" stroke-width="3"/>
<circle cx="1000" cy="420" r="8" fill="#58A848" stroke="#2F6E2A" stroke-width="3"/>
<path d="M -14 -16 L 14 -10 L 14 10 L -14 16 Z" fill="#C98A4A" stroke="#4A2E14" stroke-width="2.5" transform="translate(728.0 888.0) rotate(-6.5)"/>
<path d="M -6 -7 L 5 0 L -6 7" fill="none" stroke="#FFD23F" stroke-width="3" transform="translate(728.0 888.0) rotate(-6.5)"/>
<text x="12" y="1104" font-size="9" fill="#E6EDF5">DUCK POND · Duck Pond · 84x54 tiles · road 5 tiles wide</text>
<text x="12" y="1128" font-size="9" fill="#E6EDF5">Lap 187 tiles = 23,974 px · about 28 s per lap · closest the road comes to itself: 10.0 tiles</text>
<text x="12" y="1152" font-size="9" fill="#E6EDF5">Dark channel = deep water (full speed). Pale water = shallows (slower). Patches = banks (slowest; hovercraft skim them).</text>
<text x="12" y="1176" font-size="9" fill="#E6EDF5">Buoys mark the tight bends. White chevrons = current. Brown wedge = jump ramp. Orange = fizz/boost. Shore = wall.</text>
<text x="12" y="1200" font-size="9" fill="#E6EDF5">Gold dashes = Reed Run: 37 tiles, 3.5 wide, instead of 40 tiles of main channel</text>
<text x="12" y="1224" font-size="9" fill="#E6EDF5">Gold dashes = Duck Island: 29 tiles, 3.5 wide, instead of 23 tiles of main channel</text>
</svg>